<svg width="16" height="17" viewBox="0 0 16 17" fill="none" xmlns="http://www.w3.org/2000/svg">
<g clip-path="url(#clip0_1590_3555)">
<path d="M0.666667 4.50008H15.3333C15.5101 4.50008 15.6797 4.42984 15.8047 4.30482C15.9298 4.17979 16 4.01022 16 3.83341C16 3.6566 15.9298 3.48703 15.8047 3.36201C15.6797 3.23699 15.5101 3.16675 15.3333 3.16675H0.666667C0.489856 3.16675 0.320286 3.23699 0.195262 3.36201C0.0702379 3.48703 0 3.6566 0 3.83341C0 4.01022 0.0702379 4.17979 0.195262 4.30482C0.320286 4.42984 0.489856 4.50008 0.666667 4.50008V4.50008Z" fill="#99A2AD"/>
<path d="M0.666667 7.83333H10C10.1768 7.83333 10.3464 7.76309 10.4714 7.63807C10.5964 7.51304 10.6667 7.34348 10.6667 7.16667C10.6667 6.98985 10.5964 6.82029 10.4714 6.69526C10.3464 6.57024 10.1768 6.5 10 6.5H0.666667C0.489856 6.5 0.320286 6.57024 0.195262 6.69526C0.0702379 6.82029 0 6.98985 0 7.16667C0 7.34348 0.0702379 7.51304 0.195262 7.63807C0.320286 7.76309 0.489856 7.83333 0.666667 7.83333V7.83333Z" fill="#99A2AD"/>
<path d="M10 13.1667H0.666667C0.489856 13.1667 0.320286 13.237 0.195262 13.362C0.0702379 13.487 0 13.6566 0 13.8334C0 14.0102 0.0702379 14.1798 0.195262 14.3048C0.320286 14.4299 0.489856 14.5001 0.666667 14.5001H10C10.1768 14.5001 10.3464 14.4299 10.4714 14.3048C10.5964 14.1798 10.6667 14.0102 10.6667 13.8334C10.6667 13.6566 10.5964 13.487 10.4714 13.362C10.3464 13.237 10.1768 13.1667 10 13.1667Z" fill="#99A2AD"/>
<path d="M15.3333 9.83325H0.666667C0.489856 9.83325 0.320286 9.90349 0.195262 10.0285C0.0702379 10.1535 0 10.3231 0 10.4999C0 10.6767 0.0702379 10.8463 0.195262 10.9713C0.320286 11.0964 0.489856 11.1666 0.666667 11.1666H15.3333C15.5101 11.1666 15.6797 11.0964 15.8047 10.9713C15.9298 10.8463 16 10.6767 16 10.4999C16 10.3231 15.9298 10.1535 15.8047 10.0285C15.6797 9.90349 15.5101 9.83325 15.3333 9.83325Z" fill="#99A2AD"/>
</g>
<defs>
<clipPath id="clip0_1590_3555">
<rect width="16" height="16" fill="white" transform="translate(0 0.5)"/>
</clipPath>
</defs>
</svg>
