<svg width="175" height="36" viewBox="0 0 175 36" fill="none" xmlns="http://www.w3.org/2000/svg">
<path fill-rule="evenodd" clip-rule="evenodd" d="M33.8538 26.1464C33.8723 25.8866 33.8807 25.6243 33.8807 25.3595C33.8807 22.7818 31.8882 23.454 30.8292 25.5244C29.5463 28.0324 27.3113 29.6236 24.8103 29.942C24.5463 29.9764 24.2761 29.9959 24 30C23.7239 29.9959 23.4537 29.9764 23.1897 29.942C20.6887 29.6236 18.4537 28.0324 17.1708 25.5244C16.1118 23.454 14.1193 22.7818 14.1193 25.3595C14.1193 25.6243 14.1277 25.8866 14.1462 26.1464C14.2187 27.1645 13.7367 28.2961 13.0309 28.2961C12.6591 28.2961 12.316 27.979 12.2147 27.4603C12.0652 26.6951 12 25.9036 12 25.3233C12 17.9613 15.564 9.86878 20.2408 7.00313C21.167 6.43565 22.4234 6.09666 23.5979 6.01711C23.7305 6.00775 23.8645 6.00202 24 6C24.1355 6.00202 24.2695 6.00775 24.4021 6.01711C25.5766 6.09666 26.833 6.43565 27.7592 7.00313C32.436 9.86878 36 17.9613 36 25.3233C36 25.9036 35.9348 26.6951 35.7853 27.4603C35.684 27.979 35.3409 28.2961 34.9691 28.2961C34.2633 28.2961 33.7813 27.1645 33.8538 26.1464ZM24.1641 8.90839C24.1094 8.90744 24.0547 8.90697 24 8.90697C23.9419 8.90697 23.8839 8.9075 23.8261 8.90857C20.3995 8.97192 17.4276 13.4009 17.4276 18C17.4276 22.6037 20.4054 24.5492 23.8363 24.6089C23.8908 24.6098 23.9453 24.6103 24 24.6103C24.057 24.6103 24.1141 24.6098 24.1712 24.6087C27.5989 24.5464 30.5724 22.6003 30.5724 18C30.5724 13.3965 27.5948 8.96821 24.1641 8.90839Z" fill="#4369FC"/>
<path d="M62.144 18.028C62.144 19.612 61.824 21.036 61.184 22.3C60.544 23.564 59.648 24.58 58.496 25.348L60.848 28.924H58.112L56.408 26.332C55.512 26.604 54.576 26.74 53.6 26.74C51.936 26.74 50.448 26.372 49.136 25.636C47.84 24.884 46.824 23.852 46.088 22.54C45.368 21.212 45.008 19.708 45.008 18.028C45.008 16.348 45.368 14.852 46.088 13.54C46.824 12.212 47.84 11.18 49.136 10.444C50.448 9.708 51.936 9.34 53.6 9.34C55.248 9.34 56.72 9.708 58.016 10.444C59.312 11.18 60.32 12.212 61.04 13.54C61.776 14.852 62.144 16.348 62.144 18.028ZM53.6 24.46C54.144 24.46 54.632 24.404 55.064 24.292L52.496 20.404H55.232L57.176 23.332C57.928 22.772 58.512 22.036 58.928 21.124C59.36 20.212 59.576 19.18 59.576 18.028C59.576 16.78 59.32 15.676 58.808 14.716C58.312 13.74 57.608 12.98 56.696 12.436C55.8 11.892 54.768 11.62 53.6 11.62C52.432 11.62 51.392 11.892 50.48 12.436C49.568 12.98 48.856 13.74 48.344 14.716C47.848 15.676 47.6 16.78 47.6 18.028C47.6 19.292 47.848 20.412 48.344 21.388C48.856 22.348 49.568 23.1 50.48 23.644C51.392 24.188 52.432 24.46 53.6 24.46ZM69.2919 26.74C68.4119 26.74 67.6199 26.524 66.9159 26.092C66.2119 25.644 65.6599 25.036 65.2599 24.268C64.8599 23.484 64.6599 22.604 64.6599 21.628V14.092H67.0119V21.436C67.0119 22.38 67.2759 23.148 67.8039 23.74C68.3319 24.332 69.0119 24.628 69.8439 24.628C70.7079 24.628 71.4279 24.324 72.0039 23.716C72.5799 23.108 72.8679 22.348 72.8679 21.436V14.092H75.2199V26.5H73.5399L72.9879 24.628C72.5879 25.3 72.0599 25.82 71.4039 26.188C70.7639 26.556 70.0599 26.74 69.2919 26.74ZM80.9159 26.5H78.5639V14.092H80.9159V26.5ZM79.7639 12.124C79.3159 12.124 78.9479 11.988 78.6599 11.716C78.3719 11.444 78.2279 11.084 78.2279 10.636C78.2279 10.204 78.3719 9.852 78.6599 9.58C78.9479 9.292 79.3159 9.148 79.7639 9.148C80.1799 9.148 80.5319 9.292 80.8199 9.58C81.1079 9.852 81.2519 10.204 81.2519 10.636C81.2519 11.068 81.1079 11.428 80.8199 11.716C80.5479 11.988 80.1959 12.124 79.7639 12.124ZM89.9919 26.74C88.7599 26.74 87.6479 26.468 86.6559 25.924C85.6799 25.364 84.9199 24.596 84.3759 23.62C83.8319 22.644 83.5599 21.54 83.5599 20.308C83.5599 19.06 83.8319 17.948 84.3759 16.972C84.9199 15.996 85.6799 15.236 86.6559 14.692C87.6319 14.132 88.7439 13.852 89.9919 13.852C91.3199 13.852 92.5039 14.172 93.5439 14.812C94.5999 15.452 95.3519 16.372 95.7999 17.572L93.5919 17.932C93.3039 17.356 92.8479 16.892 92.2239 16.54C91.6159 16.188 90.9199 16.012 90.1359 16.012C88.9199 16.012 87.9279 16.412 87.1599 17.212C86.4079 18.012 86.0319 19.044 86.0319 20.308C86.0319 21.572 86.4079 22.604 87.1599 23.404C87.9279 24.188 88.9199 24.58 90.1359 24.58C90.9519 24.58 91.6719 24.396 92.2959 24.028C92.9359 23.66 93.3999 23.172 93.6879 22.564L95.8959 22.924C95.4479 24.14 94.6799 25.084 93.5919 25.756C92.5199 26.412 91.3199 26.74 89.9919 26.74ZM108.84 26.5H105.744L101.16 21.364H100.416V26.5H98.0639V9.58H100.416V19.108H101.136L105.528 14.092H108.36L103.032 20.092L108.84 26.5ZM113.218 26.5H110.746V9.58H121.426V11.86H113.218V17.26H120.658V19.54H113.218V26.5ZM126.643 26.5H124.291V9.58H126.643V26.5ZM135.838 26.74C134.574 26.74 133.446 26.468 132.454 25.924C131.462 25.38 130.686 24.62 130.126 23.644C129.566 22.668 129.286 21.556 129.286 20.308C129.286 19.06 129.566 17.948 130.126 16.972C130.686 15.996 131.462 15.236 132.454 14.692C133.446 14.132 134.574 13.852 135.838 13.852C137.102 13.852 138.23 14.132 139.222 14.692C140.214 15.236 140.99 15.996 141.55 16.972C142.11 17.948 142.39 19.06 142.39 20.308C142.39 21.556 142.11 22.668 141.55 23.644C140.99 24.62 140.214 25.38 139.222 25.924C138.23 26.468 137.102 26.74 135.838 26.74ZM135.838 24.58C137.054 24.58 138.038 24.188 138.79 23.404C139.558 22.62 139.942 21.588 139.942 20.308C139.942 19.028 139.558 17.996 138.79 17.212C138.038 16.412 137.054 16.012 135.838 16.012C134.622 16.012 133.638 16.412 132.886 17.212C132.134 17.996 131.758 19.028 131.758 20.308C131.758 21.572 132.134 22.604 132.886 23.404C133.638 24.188 134.622 24.58 135.838 24.58ZM150.27 26.5H146.766L143.358 14.092H145.782L148.47 24.196H148.806L151.518 14.092H154.11L156.774 24.196H157.134L159.798 14.092H162.126L158.79 26.5H155.286L152.958 17.572H152.598L150.27 26.5Z" fill="#4369FC"/>
</svg>
