<svg width="16" height="17" viewBox="0 0 16 17" fill="none" xmlns="http://www.w3.org/2000/svg">
<g clip-path="url(#clip0_700_5868)">
<path d="M8.00021 0.5C5.87918 0.502294 3.84568 1.34589 2.34589 2.84568C0.846095 4.34547 0.0025031 6.37897 0.00020905 8.5C-0.083791 14.882 7.43954 18.786 12.6002 15.0447C12.6744 14.9953 12.7379 14.9316 12.787 14.8574C12.8362 14.7831 12.8699 14.6997 12.8863 14.6121C12.9027 14.5246 12.9013 14.4346 12.8824 14.3476C12.8634 14.2606 12.8272 14.1782 12.7758 14.1054C12.7245 14.0326 12.6591 13.9709 12.5835 13.9238C12.5079 13.8767 12.4237 13.8452 12.3357 13.8312C12.2478 13.8172 12.1579 13.821 12.0714 13.8423C11.9849 13.8636 11.9036 13.9021 11.8322 13.9553C7.53354 17.0707 1.26688 13.8187 1.33354 8.5C1.69954 -0.344 14.3022 -0.342 14.6669 8.5V9.83333C14.6669 10.187 14.5264 10.5261 14.2764 10.7761C14.0263 11.0262 13.6872 11.1667 13.3335 11.1667C12.9799 11.1667 12.6408 11.0262 12.3907 10.7761C12.1407 10.5261 12.0002 10.187 12.0002 9.83333V8.5C11.8322 3.214 4.16754 3.21467 4.00021 8.5C4.00797 9.31066 4.26118 10.1 4.72646 10.7638C5.19175 11.4277 5.84728 11.935 6.60664 12.2189C7.36601 12.5028 8.19358 12.55 8.98028 12.3542C9.76697 12.1583 10.4759 11.7287 11.0135 11.122C11.3027 11.6324 11.7522 12.0332 12.2923 12.2623C12.8323 12.4914 13.4329 12.536 14.0009 12.3893C14.5689 12.2425 15.0726 11.9125 15.4341 11.4504C15.7955 10.9883 15.9945 10.42 16.0002 9.83333V8.5C15.9979 6.37897 15.1543 4.34547 13.6545 2.84568C12.1547 1.34589 10.1212 0.502294 8.00021 0.5V0.5ZM8.00021 11.1667C7.29297 11.1667 6.61469 10.8857 6.11459 10.3856C5.61449 9.88552 5.33354 9.20724 5.33354 8.5C5.33354 7.79276 5.61449 7.11448 6.11459 6.61438C6.61469 6.11428 7.29297 5.83333 8.00021 5.83333C8.70745 5.83333 9.38573 6.11428 9.88583 6.61438C10.3859 7.11448 10.6669 7.79276 10.6669 8.5C10.6669 9.20724 10.3859 9.88552 9.88583 10.3856C9.38573 10.8857 8.70745 11.1667 8.00021 11.1667Z" fill="#99A2AD"/>
</g>
<defs>
<clipPath id="clip0_700_5868">
<rect width="16" height="16" fill="white" transform="translate(0 0.5)"/>
</clipPath>
</defs>
</svg>
