<svg width="16" height="16" viewBox="0 0 16 16" fill="none" xmlns="http://www.w3.org/2000/svg">
<path fill-rule="evenodd" clip-rule="evenodd" d="M15.8047 0.195222C16.0651 0.455518 16.0651 0.877541 15.8047 1.13784L1.13807 15.8015C0.877722 16.0618 0.455612 16.0618 0.195262 15.8015C-0.0650874 15.5412 -0.0650874 15.1192 0.195262 14.8589L14.8619 0.195222C15.1223 -0.065074 15.5444 -0.065074 15.8047 0.195222Z" fill="#99A2AD"/>
<path fill-rule="evenodd" clip-rule="evenodd" d="M4.73456 13.3369C4.88857 14.0877 5.29675 14.7626 5.89043 15.2477C6.48577 15.7342 7.23103 16 7.99993 16C8.76884 16 9.5141 15.7342 10.1094 15.2477C10.7048 14.7612 11.1136 14.0839 11.2666 13.3305H11.8253C12.3391 13.3306 12.8461 13.2118 13.3064 12.9836C13.7668 12.7553 14.1682 12.4237 14.4791 12.0147C14.7901 11.6057 15.0023 11.1304 15.0991 10.6258C15.196 10.1212 15.1748 9.60111 15.0373 9.10608L13.7699 4.54969C13.7522 4.48592 13.7335 4.42252 13.7138 4.35952L12.6335 5.43954L13.7519 9.46267C13.8356 9.75952 13.849 10.0718 13.7909 10.3747C13.7328 10.6776 13.6049 10.9628 13.4173 11.2076C13.2315 11.454 12.9908 11.6537 12.7143 11.7908C12.4379 11.9279 12.1332 11.9987 11.8246 11.9975H6.07421L4.73456 13.3369ZM6.85013 14.2943C7.18618 14.5329 7.58776 14.6619 7.99993 14.6636C8.41211 14.6619 8.81369 14.5329 9.14973 14.2943C9.48578 14.0557 9.73988 13.7191 9.87727 13.3305H6.1226C6.25999 13.7191 6.51409 14.0557 6.85013 14.2943Z" fill="#99A2AD"/>
<path d="M11.1981 2.72719C11.038 2.57044 10.8666 2.42421 10.6848 2.2898C9.80962 1.64276 8.74321 1.30679 7.65511 1.33529C6.56701 1.36379 5.51967 1.75512 4.67957 2.44708C3.83947 3.13904 3.25483 4.09192 3.0186 5.15423L2.0386 9.56398C1.97361 9.85627 1.97511 10.1594 2.04297 10.451C2.11084 10.7427 2.24334 11.0153 2.43071 11.2489C2.46684 11.2939 2.50483 11.3373 2.54456 11.3789L1.60138 12.3219C1.52741 12.2459 1.45697 12.1662 1.39032 12.0832C1.07797 11.6939 0.857074 11.2394 0.743927 10.7533C0.63078 10.2672 0.628276 9.7619 0.736599 9.27471L1.71727 4.86562C2.01807 3.51317 2.76241 2.30005 3.83197 1.4191C4.90154 0.538143 6.23494 0.0399126 7.62024 0.00360001C9.00554 -0.0327126 10.3632 0.394977 11.4775 1.21869C11.7126 1.39248 11.934 1.5818 12.1405 1.7849L11.1981 2.72719Z" fill="#99A2AD"/>
</svg>
