<svg width="22" height="23" viewBox="0 0 22 23" fill="none" xmlns="http://www.w3.org/2000/svg">
<g clip-path="url(#clip0_445_123)">
<path d="M2.61158 21.8375C3.11212 22.0514 3.66552 22.1095 4.19957 22.0042C4.73362 21.8989 5.22354 21.6351 5.60541 21.2472L11 15.8819L16.3946 21.2472C16.6461 21.5024 16.9458 21.7052 17.2762 21.8438C17.6066 21.9824 17.9613 22.0541 18.3196 22.0548C18.6879 22.0537 19.0524 21.9799 19.3921 21.8375C19.8967 21.6333 20.328 21.2816 20.6298 20.8285C20.9315 20.3754 21.0895 19.8418 21.0833 19.2974V4.83333C21.0819 3.6182 20.5985 2.45326 19.7393 1.59403C18.8801 0.734808 17.7151 0.251456 16.5 0.25L5.5 0.25C4.28487 0.251456 3.11992 0.734808 2.2607 1.59403C1.40147 2.45326 0.918119 3.6182 0.916664 4.83333V19.2974C0.910748 19.8422 1.06936 20.3761 1.37176 20.8293C1.67415 21.2825 2.10626 21.6339 2.61158 21.8375Z" fill="#99A2AD"/>
</g>
<defs>
<clipPath id="clip0_445_123">
<rect width="22" height="22" fill="white" transform="translate(0 0.25)"/>
</clipPath>
</defs>
</svg>
