<svg width="24" height="25" viewBox="0 0 24 25" fill="none" xmlns="http://www.w3.org/2000/svg">
<g clip-path="url(#clip0_855_2278)">
<path d="M19 4.89697H18.492L16.308 2.06497C16.0265 1.70278 15.6663 1.40939 15.2547 1.20703C14.843 1.00466 14.3907 0.898636 13.932 0.896973L10.068 0.896973C9.6093 0.898636 9.15699 1.00466 8.74533 1.20703C8.33368 1.40939 7.97347 1.70278 7.692 2.06497L5.508 4.89697H5C3.67441 4.89856 2.40356 5.42585 1.46622 6.36319C0.528882 7.30053 0.00158786 8.57138 0 9.89697L0 19.897C0.00158786 21.2226 0.528882 22.4934 1.46622 23.4308C2.40356 24.3681 3.67441 24.8954 5 24.897H19C20.3256 24.8954 21.5964 24.3681 22.5338 23.4308C23.4711 22.4934 23.9984 21.2226 24 19.897V9.89697C23.9984 8.57138 23.4711 7.30053 22.5338 6.36319C21.5964 5.42585 20.3256 4.89856 19 4.89697ZM9.276 3.28697C9.36967 3.16603 9.48969 3.06804 9.62693 3.00046C9.76418 2.93287 9.91502 2.89748 10.068 2.89697H13.932C14.085 2.89763 14.2357 2.93309 14.373 3.00066C14.5102 3.06823 14.6302 3.16614 14.724 3.28697L15.966 4.89697H8.034L9.276 3.28697ZM22 19.897C22 20.6926 21.6839 21.4557 21.1213 22.0183C20.5587 22.5809 19.7956 22.897 19 22.897H5C4.20435 22.897 3.44129 22.5809 2.87868 22.0183C2.31607 21.4557 2 20.6926 2 19.897V9.89697C2 9.10132 2.31607 8.33826 2.87868 7.77565C3.44129 7.21304 4.20435 6.89697 5 6.89697H19C19.7956 6.89697 20.5587 7.21304 21.1213 7.77565C21.6839 8.33826 22 9.10132 22 9.89697V19.897Z" fill="white"/>
<path d="M12 8.89697C10.8133 8.89697 9.65328 9.24887 8.66658 9.90816C7.67989 10.5674 6.91085 11.5045 6.45673 12.6009C6.0026 13.6972 5.88378 14.9036 6.11529 16.0675C6.3468 17.2314 6.91825 18.3005 7.75736 19.1396C8.59648 19.9787 9.66558 20.5502 10.8295 20.7817C11.9933 21.0132 13.1997 20.8944 14.2961 20.4403C15.3925 19.9861 16.3295 19.2171 16.9888 18.2304C17.6481 17.2437 18 16.0837 18 14.897C17.9984 13.3062 17.3658 11.781 16.2409 10.6561C15.116 9.53121 13.5908 8.89856 12 8.89697ZM12 18.897C11.2089 18.897 10.4355 18.6624 9.77772 18.2229C9.11993 17.7833 8.60724 17.1586 8.30448 16.4277C8.00173 15.6968 7.92252 14.8925 8.07686 14.1166C8.2312 13.3407 8.61217 12.628 9.17158 12.0685C9.73099 11.5091 10.4437 11.1282 11.2196 10.9738C11.9956 10.8195 12.7998 10.8987 13.5307 11.2015C14.2616 11.5042 14.8864 12.0169 15.3259 12.6747C15.7654 13.3325 16 14.1058 16 14.897C16 15.9578 15.5786 16.9753 14.8284 17.7254C14.0783 18.4755 13.0609 18.897 12 18.897Z" fill="white"/>
</g>
<defs>
<clipPath id="clip0_855_2278">
<rect width="24" height="24" fill="white" transform="translate(0 0.896973)"/>
</clipPath>
</defs>
</svg>
