<svg width="16" height="16" viewBox="0 0 16 16" fill="none" xmlns="http://www.w3.org/2000/svg">
<g clip-path="url(#clip0_1918_48048)">
<path d="M15.3005 6.39984C15.1755 6.27486 15.0059 6.20465 14.8292 6.20465C14.6524 6.20465 14.4829 6.27486 14.3578 6.39984L7.0965 13.6925C6.78698 14.0021 6.41951 14.2476 6.01508 14.4152C5.61065 14.5828 5.17717 14.669 4.73941 14.669C3.8553 14.6691 3.00737 14.318 2.38217 13.6928C1.75697 13.0677 1.4057 12.2198 1.40563 11.3357C1.40557 10.4516 1.75672 9.60371 2.38184 8.97851L9.4145 1.91717C9.79056 1.5471 10.2976 1.34062 10.8252 1.3427C11.3528 1.34479 11.8582 1.55528 12.2314 1.92831C12.6045 2.30134 12.8151 2.8067 12.8173 3.33431C12.8195 3.86192 12.6132 4.36903 12.2432 4.74517L5.2105 11.8065C5.08367 11.928 4.91481 11.9958 4.73917 11.9958C4.56353 11.9958 4.39467 11.928 4.26784 11.8065C4.14286 11.6815 4.07265 11.5119 4.07265 11.3352C4.07265 11.1584 4.14286 10.9889 4.26784 10.8638L10.5292 4.57384C10.6506 4.4481 10.7178 4.2797 10.7163 4.10491C10.7148 3.93011 10.6447 3.7629 10.521 3.63929C10.3974 3.51569 10.2302 3.44558 10.0554 3.44406C9.88064 3.44254 9.71224 3.50973 9.5865 3.63117L3.32517 9.92117C3.13942 10.1069 2.99207 10.3274 2.89154 10.5701C2.79101 10.8127 2.73926 11.0728 2.73926 11.3355C2.73926 11.5982 2.79101 11.8583 2.89154 12.101C2.99207 12.3436 3.13942 12.5641 3.32517 12.7498C3.70625 13.1135 4.21276 13.3164 4.7395 13.3164C5.26625 13.3164 5.77276 13.1135 6.15384 12.7498L13.1858 5.68784C13.7978 5.06004 14.1379 4.21641 14.1322 3.33969C14.1266 2.46297 13.7758 1.62376 13.1558 1.00385C12.5358 0.38395 11.6966 0.0332688 10.8199 0.0277755C9.94313 0.0222822 9.09955 0.362419 8.47184 0.974505L1.43917 8.03584C0.563956 8.91105 0.0722656 10.0981 0.0722656 11.3358C0.0722656 12.5736 0.563956 13.7606 1.43917 14.6358C2.31438 15.5111 3.50143 16.0027 4.73917 16.0027C5.97691 16.0027 7.16396 15.5111 8.03917 14.6358L15.3005 7.34517C15.3628 7.28322 15.4122 7.20957 15.4459 7.12845C15.4797 7.04734 15.497 6.96035 15.497 6.87251C15.497 6.78466 15.4797 6.69767 15.4459 6.61656C15.4122 6.53544 15.3628 6.46179 15.3005 6.39984Z" fill="#99A2AD"/>
</g>
<defs>
<clipPath id="clip0_1918_48048">
<rect width="16" height="16" fill="white"/>
</clipPath>
</defs>
</svg>
