<svg width="22" height="23" viewBox="0 0 22 23" fill="none" xmlns="http://www.w3.org/2000/svg">
<g clip-path="url(#clip0_445_115)">
<path d="M22 14.9167V19.5001C22 20.2294 21.7103 20.9289 21.1945 21.4446C20.6788 21.9604 19.9793 22.2501 19.25 22.2501H14.6667C13.3807 22.2488 12.1176 21.9093 11.0043 21.2657C9.89089 20.6222 8.96633 19.6971 8.32333 18.5834C9.01438 18.5785 9.70308 18.5023 10.3785 18.3561C10.8929 18.9993 11.5454 19.5184 12.2877 19.8752C13.03 20.2319 13.8431 20.417 14.6667 20.4167H19.25C19.4931 20.4167 19.7263 20.3202 19.8982 20.1483C20.0701 19.9764 20.1667 19.7432 20.1667 19.5001V14.9167C20.1665 14.0929 19.9808 13.2796 19.6234 12.5373C19.2661 11.795 18.7462 11.1426 18.1023 10.6286C18.2498 9.95329 18.3272 9.26459 18.3333 8.57342C19.447 9.21641 20.3721 10.141 21.0156 11.2543C21.6592 12.3677 21.9987 13.6308 22 14.9167ZM16.4789 9.09683C16.5646 7.91584 16.3952 6.73022 15.9819 5.62055C15.5687 4.51089 14.9215 3.50317 14.0842 2.66588C13.2469 1.82859 12.2392 1.18135 11.1295 0.768142C10.0199 0.354931 8.83425 0.185433 7.65325 0.271165C5.56042 0.510169 3.62718 1.50608 2.21758 3.07135C0.807974 4.63662 0.0192749 6.66324 0 8.76958L0 13.3896C0 15.7106 1.38142 16.7501 2.75 16.7501H7.975C10.0822 16.7319 12.1101 15.9438 13.6765 14.5341C15.2429 13.1244 16.2396 11.1905 16.4789 9.09683ZM12.7875 3.9635C13.4383 4.61571 13.9414 5.4001 14.2627 6.26359C14.5841 7.12708 14.7162 8.04952 14.6502 8.9685C14.4545 10.6035 13.668 12.1107 12.4386 13.2062C11.2091 14.3017 9.62169 14.9101 7.975 14.9167H2.75C1.89933 14.9167 1.83333 13.748 1.83333 13.3896V8.76958C1.84098 7.12359 2.44993 5.53714 3.54559 4.30879C4.64125 3.08043 6.14808 2.29486 7.7825 2.09991C7.93467 2.08891 8.08683 2.08341 8.239 2.08341C9.0835 2.08263 9.91987 2.24826 10.7003 2.57086C11.4808 2.89345 12.19 3.36668 12.7875 3.9635Z" fill="#99A2AD"/>
</g>
<defs>
<clipPath id="clip0_445_115">
<rect width="22" height="22" fill="white" transform="translate(0 0.25)"/>
</clipPath>
</defs>
</svg>
