<svg width="16" height="16" viewBox="0 0 16 16" fill="none" xmlns="http://www.w3.org/2000/svg">
<g clip-path="url(#clip0_700_5335)">
<path d="M10.6665 5.33337C10.5414 5.20839 10.3719 5.13818 10.1951 5.13818C10.0184 5.13818 9.84881 5.20839 9.7238 5.33337L7.9998 7.05737L6.2758 5.33337C6.15007 5.21194 5.98167 5.14474 5.80687 5.14626C5.63207 5.14778 5.46486 5.21789 5.34126 5.3415C5.21765 5.4651 5.14754 5.63231 5.14602 5.80711C5.1445 5.98191 5.2117 6.15031 5.33314 6.27604L7.05713 8.00004L5.33314 9.72404C5.2117 9.84978 5.1445 10.0182 5.14602 10.193C5.14754 10.3678 5.21765 10.535 5.34126 10.6586C5.46486 10.7822 5.63207 10.8523 5.80687 10.8538C5.98167 10.8553 6.15007 10.7881 6.2758 10.6667L7.9998 8.94271L9.7238 10.6667C9.84953 10.7881 10.0179 10.8553 10.1927 10.8538C10.3675 10.8523 10.5347 10.7822 10.6583 10.6586C10.7819 10.535 10.8521 10.3678 10.8536 10.193C10.8551 10.0182 10.7879 9.84978 10.6665 9.72404L8.94246 8.00004L10.6665 6.27604C10.7914 6.15102 10.8617 5.98148 10.8617 5.80471C10.8617 5.62793 10.7914 5.45839 10.6665 5.33337Z" fill="#99A2AD"/>
<path d="M8 0C6.41775 0 4.87104 0.469192 3.55544 1.34824C2.23985 2.22729 1.21447 3.47672 0.608967 4.93853C0.00346629 6.40034 -0.15496 8.00887 0.153721 9.56072C0.462403 11.1126 1.22433 12.538 2.34315 13.6569C3.46197 14.7757 4.88743 15.5376 6.43928 15.8463C7.99113 16.155 9.59966 15.9965 11.0615 15.391C12.5233 14.7855 13.7727 13.7602 14.6518 12.4446C15.5308 11.129 16 9.58225 16 8C15.9977 5.87897 15.1541 3.84547 13.6543 2.34568C12.1545 0.845886 10.121 0.00229405 8 0V0ZM8 14.6667C6.68146 14.6667 5.39253 14.2757 4.2962 13.5431C3.19987 12.8106 2.34539 11.7694 1.84081 10.5512C1.33622 9.33305 1.2042 7.99261 1.46144 6.6994C1.71867 5.40619 2.35361 4.21831 3.28596 3.28596C4.21831 2.35361 5.4062 1.71867 6.6994 1.46143C7.99261 1.2042 9.33305 1.33622 10.5512 1.8408C11.7694 2.34539 12.8106 3.19987 13.5431 4.2962C14.2757 5.39253 14.6667 6.68146 14.6667 8C14.6647 9.76752 13.9617 11.4621 12.7119 12.7119C11.4621 13.9617 9.76752 14.6647 8 14.6667Z" fill="#99A2AD"/>
</g>
<defs>
<clipPath id="clip0_700_5335">
<rect width="16" height="16" fill="white"/>
</clipPath>
</defs>
</svg>
