<svg width="16" height="17" viewBox="0 0 16 17" fill="none" xmlns="http://www.w3.org/2000/svg">
<g clip-path="url(#clip0_700_5880)">
<path d="M7.33333 8.5C7.51014 8.5 7.67971 8.57024 7.80474 8.69526C7.92976 8.82029 8 8.98986 8 9.16667C8 9.34348 7.92976 9.51305 7.80474 9.63807C7.67971 9.7631 7.51014 9.83333 7.33333 9.83333H5.33333C5.15652 9.83333 4.98695 9.7631 4.86193 9.63807C4.7369 9.51305 4.66667 9.34348 4.66667 9.16667C4.66667 8.98986 4.7369 8.82029 4.86193 8.69526C4.98695 8.57024 5.15652 8.5 5.33333 8.5H7.33333ZM11.3333 6.5C11.3333 6.32319 11.2631 6.15362 11.1381 6.0286C11.013 5.90357 10.8435 5.83333 10.6667 5.83333H5.33333C5.15652 5.83333 4.98695 5.90357 4.86193 6.0286C4.7369 6.15362 4.66667 6.32319 4.66667 6.5C4.66667 6.67681 4.7369 6.84638 4.86193 6.9714C4.98695 7.09643 5.15652 7.16667 5.33333 7.16667H10.6667C10.8435 7.16667 11.013 7.09643 11.1381 6.9714C11.2631 6.84638 11.3333 6.67681 11.3333 6.5ZM5.33333 4.5H10.6667C10.8435 4.5 11.013 4.42976 11.1381 4.30474C11.2631 4.17971 11.3333 4.01014 11.3333 3.83333C11.3333 3.65652 11.2631 3.48695 11.1381 3.36193C11.013 3.2369 10.8435 3.16667 10.6667 3.16667H5.33333C5.15652 3.16667 4.98695 3.2369 4.86193 3.36193C4.7369 3.48695 4.66667 3.65652 4.66667 3.83333C4.66667 4.01014 4.7369 4.17971 4.86193 4.30474C4.98695 4.42976 5.15652 4.5 5.33333 4.5ZM13.3333 13.4627V16.018C13.3334 16.1131 13.3052 16.2061 13.2524 16.2852C13.1996 16.3643 13.1245 16.4259 13.0366 16.4623C12.9488 16.4987 12.8521 16.5082 12.7588 16.4897C12.6656 16.4711 12.5799 16.4253 12.5127 16.358L12 15.846L11.4873 16.358C11.4201 16.4253 11.3344 16.4711 11.2412 16.4897C11.1479 16.5082 11.0512 16.4987 10.9634 16.4623C10.8755 16.4259 10.8004 16.3643 10.7476 16.2852C10.6948 16.2061 10.6666 16.1131 10.6667 16.018V13.4627C10.1582 13.1705 9.76067 12.7185 9.53588 12.1769C9.3111 11.6353 9.27171 11.0346 9.42386 10.4683C9.57601 9.90201 9.91115 9.40192 10.3771 9.04592C10.843 8.68991 11.4136 8.49798 12 8.5C12.2254 8.50282 12.4494 8.53463 12.6667 8.59467V3.83333C12.6667 3.3029 12.456 2.79419 12.0809 2.41912C11.7058 2.04405 11.1971 1.83333 10.6667 1.83333H5.33333C4.8029 1.83333 4.29419 2.04405 3.91912 2.41912C3.54405 2.79419 3.33333 3.3029 3.33333 3.83333V11.8333C3.33333 12.3638 3.54405 12.8725 3.91912 13.2475C4.29419 13.6226 4.8029 13.8333 5.33333 13.8333H8.66667C8.84348 13.8333 9.01305 13.9036 9.13807 14.0286C9.26309 14.1536 9.33333 14.3232 9.33333 14.5C9.33333 14.6768 9.26309 14.8464 9.13807 14.9714C9.01305 15.0964 8.84348 15.1667 8.66667 15.1667H5.33333C4.4496 15.1656 3.60237 14.8141 2.97748 14.1892C2.35259 13.5643 2.00106 12.7171 2 11.8333V3.83333C2.00106 2.9496 2.35259 2.10237 2.97748 1.47748C3.60237 0.852588 4.4496 0.501059 5.33333 0.5L10.6667 0.5C11.5504 0.501059 12.3976 0.852588 13.0225 1.47748C13.6474 2.10237 13.9989 2.9496 14 3.83333V9.42133C14.2611 9.7146 14.4534 10.0626 14.5627 10.4397C14.672 10.8169 14.6955 11.2137 14.6316 11.6012C14.5677 11.9886 14.4179 12.3569 14.1933 12.679C13.9687 13.001 13.6748 13.2688 13.3333 13.4627ZM13.3333 11.1667C13.3333 10.903 13.2551 10.6452 13.1086 10.4259C12.9621 10.2066 12.7539 10.0357 12.5102 9.93483C12.2666 9.83391 11.9985 9.80751 11.7399 9.85895C11.4812 9.9104 11.2437 10.0374 11.0572 10.2239C10.8707 10.4103 10.7437 10.6479 10.6923 10.9065C10.6408 11.1652 10.6672 11.4333 10.7682 11.6769C10.8691 11.9205 11.04 12.1288 11.2592 12.2753C11.4785 12.4218 11.7363 12.5 12 12.5C12.3536 12.5 12.6928 12.3595 12.9428 12.1095C13.1929 11.8594 13.3333 11.5203 13.3333 11.1667Z" fill="#99A2AD"/>
</g>
<defs>
<clipPath id="clip0_700_5880">
<rect width="16" height="16" fill="white" transform="translate(0 0.5)"/>
</clipPath>
</defs>
</svg>
