<svg width="49" height="49" viewBox="0 0 49 49" fill="none" xmlns="http://www.w3.org/2000/svg">
<g clip-path="url(#clip0_1396_8372)">
<path d="M14.5 0.5H8.5C6.37827 0.5 4.34344 1.34285 2.84315 2.84315C1.34285 4.34344 0.5 6.37827 0.5 8.5L0.5 14.5C0.5 16.6217 1.34285 18.6566 2.84315 20.1569C4.34344 21.6571 6.37827 22.5 8.5 22.5H14.5C16.6217 22.5 18.6566 21.6571 20.1569 20.1569C21.6571 18.6566 22.5 16.6217 22.5 14.5V8.5C22.5 6.37827 21.6571 4.34344 20.1569 2.84315C18.6566 1.34285 16.6217 0.5 14.5 0.5V0.5ZM18.5 14.5C18.5 15.5609 18.0786 16.5783 17.3284 17.3284C16.5783 18.0786 15.5609 18.5 14.5 18.5H8.5C7.43913 18.5 6.42172 18.0786 5.67157 17.3284C4.92143 16.5783 4.5 15.5609 4.5 14.5V8.5C4.5 7.43913 4.92143 6.42172 5.67157 5.67157C6.42172 4.92143 7.43913 4.5 8.5 4.5H14.5C15.5609 4.5 16.5783 4.92143 17.3284 5.67157C18.0786 6.42172 18.5 7.43913 18.5 8.5V14.5Z" fill="#99A2AD"/>
<path d="M40.4995 0.5H34.4995C32.3778 0.5 30.3429 1.34286 28.8427 2.84315C27.3424 4.34344 26.4995 6.37827 26.4995 8.50001V14.5C26.4995 16.6217 27.3424 18.6566 28.8427 20.1569C30.3429 21.6572 32.3778 22.5 34.4995 22.5H40.4995C42.6212 22.5 44.656 21.6572 46.1563 20.1569C47.6566 18.6566 48.4995 16.6217 48.4995 14.5V8.50001C48.4995 6.37827 47.6566 4.34344 46.1563 2.84315C44.656 1.34286 42.6212 0.5 40.4995 0.5V0.5ZM44.4995 14.5C44.4995 15.5609 44.0781 16.5783 43.3279 17.3284C42.5778 18.0786 41.5604 18.5 40.4995 18.5H34.4995C33.4386 18.5 32.4212 18.0786 31.6711 17.3284C30.9209 16.5783 30.4995 15.5609 30.4995 14.5V8.50001C30.4995 7.43914 30.9209 6.42172 31.6711 5.67158C32.4212 4.92143 33.4386 4.5 34.4995 4.5H40.4995C41.5604 4.5 42.5778 4.92143 43.3279 5.67158C44.0781 6.42172 44.4995 7.43914 44.4995 8.50001V14.5Z" fill="#99A2AD"/>
<path d="M14.5 26.5H8.5C6.37827 26.5 4.34344 27.3429 2.84315 28.8431C1.34285 30.3434 0.5 32.3783 0.5 34.5L0.5 40.5C0.5 42.6218 1.34285 44.6566 2.84315 46.1569C4.34344 47.6572 6.37827 48.5 8.5 48.5H14.5C16.6217 48.5 18.6566 47.6572 20.1569 46.1569C21.6571 44.6566 22.5 42.6218 22.5 40.5V34.5C22.5 32.3783 21.6571 30.3434 20.1569 28.8431C18.6566 27.3429 16.6217 26.5 14.5 26.5ZM18.5 40.5C18.5 41.5609 18.0786 42.5783 17.3284 43.3285C16.5783 44.0786 15.5609 44.5 14.5 44.5H8.5C7.43913 44.5 6.42172 44.0786 5.67157 43.3285C4.92143 42.5783 4.5 41.5609 4.5 40.5V34.5C4.5 33.4391 4.92143 32.4217 5.67157 31.6716C6.42172 30.9214 7.43913 30.5 8.5 30.5H14.5C15.5609 30.5 16.5783 30.9214 17.3284 31.6716C18.0786 32.4217 18.5 33.4391 18.5 34.5V40.5Z" fill="#99A2AD"/>
<path d="M40.4995 26.5H34.4995C32.3778 26.5 30.3429 27.3429 28.8427 28.8431C27.3424 30.3434 26.4995 32.3783 26.4995 34.5V40.5C26.4995 42.6218 27.3424 44.6566 28.8427 46.1569C30.3429 47.6572 32.3778 48.5 34.4995 48.5H40.4995C42.6212 48.5 44.656 47.6572 46.1563 46.1569C47.6566 44.6566 48.4995 42.6218 48.4995 40.5V34.5C48.4995 32.3783 47.6566 30.3434 46.1563 28.8431C44.656 27.3429 42.6212 26.5 40.4995 26.5ZM44.4995 40.5C44.4995 41.5609 44.0781 42.5783 43.3279 43.3285C42.5778 44.0786 41.5604 44.5 40.4995 44.5H34.4995C33.4386 44.5 32.4212 44.0786 31.6711 43.3285C30.9209 42.5783 30.4995 41.5609 30.4995 40.5V34.5C30.4995 33.4391 30.9209 32.4217 31.6711 31.6716C32.4212 30.9214 33.4386 30.5 34.4995 30.5H40.4995C41.5604 30.5 42.5778 30.9214 43.3279 31.6716C44.0781 32.4217 44.4995 33.4391 44.4995 34.5V40.5Z" fill="#99A2AD"/>
</g>
<defs>
<clipPath id="clip0_1396_8372">
<rect width="48" height="48" fill="white" transform="translate(0.5 0.5)"/>
</clipPath>
</defs>
</svg>
