<svg width="16" height="16" viewBox="0 0 16 16" fill="none" xmlns="http://www.w3.org/2000/svg">
    <path d="M6 7.99976C6.79113 7.99976 7.56449 7.76517 8.22228 7.32566C8.88008 6.88614 9.39277 6.26145 9.69552 5.53057C9.99827 4.79968 10.0775 3.99544 9.92314 3.21954C9.7688 2.44364 9.38784 1.73093 8.82843 1.17154C8.26902 0.612146 7.55629 0.231194 6.78036 0.0768583C6.00444 -0.0774778 5.20017 0.00173309 4.46927 0.304474C3.73837 0.607216 3.11365 1.11989 2.67413 1.77767C2.2346 2.43544 2 3.20878 2 3.99988C2.00106 5.06039 2.42283 6.07716 3.17275 6.82705C3.92266 7.57694 4.93946 7.9987 6 7.99976ZM6 1.33329C6.52742 1.33329 7.04299 1.48969 7.48152 1.7827C7.92005 2.0757 8.26185 2.49217 8.46368 2.97942C8.66552 3.46668 8.71832 4.00284 8.61543 4.5201C8.51254 5.03737 8.25856 5.51251 7.88562 5.88544C7.51268 6.25837 7.03753 6.51234 6.52024 6.61523C6.00296 6.71812 5.46678 6.66531 4.97951 6.46348C4.49224 6.26166 4.07577 5.91987 3.78275 5.48135C3.48974 5.04284 3.33334 4.52728 3.33334 3.99988C3.33334 3.29266 3.61429 2.6144 4.11439 2.11432C4.61448 1.61424 5.29276 1.33329 6 1.33329Z" fill="#4369FC"/>
    <path d="M6 9.3335C4.40924 9.33526 2.88414 9.96795 1.75931 11.0927C0.634472 12.2176 0.00176457 13.7426 0 15.3333C0 15.5101 0.0702378 15.6797 0.195262 15.8047C0.320286 15.9297 0.489855 16 0.666666 16C0.843477 16 1.01305 15.9297 1.13807 15.8047C1.26309 15.6797 1.33333 15.5101 1.33333 15.3333C1.33333 14.0957 1.825 12.9087 2.70017 12.0336C3.57534 11.1584 4.76232 10.6668 6 10.6668C7.23767 10.6668 8.42466 11.1584 9.29983 12.0336C10.175 12.9087 10.6667 14.0957 10.6667 15.3333C10.6667 15.5101 10.7369 15.6797 10.8619 15.8047C10.9869 15.9297 11.1565 16 11.3333 16C11.5101 16 11.6797 15.9297 11.8047 15.8047C11.9298 15.6797 12 15.5101 12 15.3333C11.9982 13.7426 11.3655 12.2176 10.2407 11.0927C9.11585 9.96795 7.59075 9.33526 6 9.3335Z" fill="#4369FC"/>
    <path d="M8.26566 8.07957C8.37705 8.01771 8.48616 7.95115 8.59266 7.87999C8.82345 7.72579 9.03892 7.55205 9.23703 7.36128C9.39694 7.4803 9.57238 7.57949 9.75957 7.65582C10.1927 7.83241 10.6693 7.87862 11.1291 7.78859C11.5889 7.69856 12.0113 7.47635 12.3428 7.15004C12.6743 6.82374 12.9 6.408 12.9915 5.95541C13.083 5.50281 13.036 5.03368 12.8566 4.60735C12.6772 4.18101 12.3734 3.81662 11.9836 3.56024C11.5938 3.30387 11.1355 3.16703 10.6667 3.16703C10.6417 3.16703 10.6168 3.16741 10.5919 3.16819C10.5872 3.14194 10.5822 3.11572 10.577 3.08953C10.5036 2.72076 10.3864 2.36422 10.2291 2.02703C10.604 1.98128 10.9859 1.99436 11.3603 2.06768C12.05 2.20272 12.6836 2.53604 13.1808 3.0255C13.6781 3.51495 14.0167 4.13855 14.1539 4.81745C14.2911 5.49634 14.2207 6.20003 13.9516 6.83954C13.6825 7.47904 13.2267 8.02563 12.642 8.4102C12.0573 8.79476 11.3699 9.00002 10.6667 9.00002C9.77582 8.99914 8.91968 8.66955 8.26566 8.07957Z" fill="#4369FC"/>
    <path d="M10.6667 10.167C10.4778 10.1672 10.2901 10.1773 10.104 10.1969C10.3163 10.3761 10.5194 10.57 10.7119 10.778C10.8856 10.9656 11.0488 11.1625 11.201 11.3676C12.104 11.483 12.9489 11.8888 13.5999 12.5295C14.3778 13.2952 14.8148 14.3338 14.8148 15.4167C14.8148 15.5714 14.8772 15.7198 14.9884 15.8292C15.0995 15.9385 15.2502 16 15.4074 16C15.5646 16 15.7153 15.9385 15.8264 15.8292C15.9376 15.7198 16 15.5714 16 15.4167C15.9984 14.0249 15.436 12.6905 14.4362 11.7063C13.4363 10.7221 12.0807 10.1686 10.6667 10.167Z" fill="#4369FC"/>
</svg>
