<svg width="10" height="10" viewBox="0 0 10 10" fill="none" xmlns="http://www.w3.org/2000/svg">
<path d="M9.47354 7.52643C9.41156 7.58892 9.33783 7.63852 9.25659 7.67236C9.17535 7.70621 9.08821 7.72363 9.0002 7.72363C8.9122 7.72363 8.82506 7.70621 8.74382 7.67236C8.66258 7.63852 8.58885 7.58892 8.52687 7.52643L5.47354 4.47311C5.41156 4.41062 5.33783 4.36103 5.25659 4.32718C5.17535 4.29333 5.08821 4.27591 5.0002 4.27591C4.9122 4.27591 4.82506 4.29333 4.74382 4.32718C4.66258 4.36103 4.58884 4.41062 4.52687 4.47311L1.47354 7.52643C1.41156 7.58892 1.33783 7.63852 1.25659 7.67236C1.17535 7.70621 1.08821 7.72363 1.0002 7.72363C0.912195 7.72363 0.825058 7.70621 0.743818 7.67236C0.662579 7.63852 0.588845 7.58892 0.526869 7.52643C0.402702 7.40153 0.333008 7.23256 0.333008 7.05644C0.333008 6.88031 0.402702 6.71134 0.526869 6.58644L3.58687 3.52644C3.96187 3.15191 4.4702 2.94154 5.0002 2.94154C5.5302 2.94154 6.03854 3.15191 6.41354 3.52644L9.47354 6.58644C9.5977 6.71134 9.6674 6.88031 9.6674 7.05644C9.6674 7.23256 9.5977 7.40153 9.47354 7.52643V7.52643Z" fill="#99A2AD"/>
</svg>
