<svg width="22" height="22" viewBox="0 0 22 22" fill="none" xmlns="http://www.w3.org/2000/svg">
<g clip-path="url(#clip0_124_2331)">
<path d="M16.0416 1.75684C15.0094 1.77289 13.9997 2.06103 13.1145 2.59217C12.2293 3.1233 11.4999 3.87862 11 4.78184C10.5001 3.87862 9.77067 3.1233 8.88545 2.59217C8.00023 2.06103 6.99053 1.77289 5.95832 1.75684C4.31284 1.82833 2.76255 2.54815 1.64612 3.75905C0.529687 4.96995 -0.0621225 6.57348 -1.78884e-05 8.21934C-1.78884e-05 12.3874 4.38715 16.9396 8.06665 20.026C8.88818 20.7164 9.92689 21.0949 11 21.0949C12.0731 21.0949 13.1118 20.7164 13.9333 20.026C17.6128 16.9396 22 12.3874 22 8.21934C22.0621 6.57348 21.4703 4.96995 20.3538 3.75905C19.2374 2.54815 17.6871 1.82833 16.0416 1.75684ZM12.7554 18.6235C12.2641 19.0373 11.6423 19.2642 11 19.2642C10.3576 19.2642 9.73591 19.0373 9.24457 18.6235C4.53473 14.6718 1.83332 10.8804 1.83332 8.21934C1.77065 7.05949 2.16915 5.92192 2.9419 5.05473C3.71465 4.18753 4.79895 3.66107 5.95832 3.59017C7.11768 3.66107 8.20199 4.18753 8.97473 5.05473C9.74748 5.92192 10.146 7.05949 10.0833 8.21934C10.0833 8.46245 10.1799 8.69561 10.3518 8.86752C10.5237 9.03943 10.7569 9.136 11 9.136C11.2431 9.136 11.4763 9.03943 11.6482 8.86752C11.8201 8.69561 11.9166 8.46245 11.9166 8.21934C11.854 7.05949 12.2525 5.92192 13.0252 5.05473C13.798 4.18753 14.8823 3.66107 16.0416 3.59017C17.201 3.66107 18.2853 4.18753 19.0581 5.05473C19.8308 5.92192 20.2293 7.05949 20.1666 8.21934C20.1666 10.8804 17.4652 14.6718 12.7554 18.6198V18.6235Z" fill="#99A2AD"/>
</g>
<defs>
<clipPath id="clip0_124_2331">
<rect width="22" height="22" fill="white"/>
</clipPath>
</defs>
</svg>
