<svg width="22" height="23" viewBox="0 0 22 23" fill="none" xmlns="http://www.w3.org/2000/svg">
<g clip-path="url(#clip0_445_111)">
<path d="M16.0417 2.00684C15.0095 2.02289 13.9998 2.31103 13.1146 2.84217C12.2294 3.3733 11.5 4.12862 11 5.03184C10.5001 4.12862 9.77073 3.3733 8.88551 2.84217C8.00029 2.31103 6.99059 2.02289 5.95838 2.00684C4.31291 2.07833 2.76261 2.79815 1.64618 4.00905C0.529748 5.21995 -0.0620615 6.82348 4.31468e-05 8.46934C4.31468e-05 12.6374 4.38721 17.1896 8.06671 20.276C8.88824 20.9664 9.92695 21.3449 11 21.3449C12.0731 21.3449 13.1118 20.9664 13.9334 20.276C17.6129 17.1896 22 12.6374 22 8.46934C22.0621 6.82348 21.4703 5.21995 20.3539 4.00905C19.2375 2.79815 17.6872 2.07833 16.0417 2.00684Z" fill="#FF3B2F"/>
</g>
<defs>
<clipPath id="clip0_445_111">
<rect width="22" height="22" fill="white" transform="translate(0 0.25)"/>
</clipPath>
</defs>
</svg>
