<svg width="24" height="24" viewBox="0 0 24 24" fill="none" xmlns="http://www.w3.org/2000/svg">
<g clip-path="url(#clip0_93_35)">
<path d="M13.845 17.2669L10.583 20.5289C9.63597 21.4507 8.36405 21.9625 7.04249 21.9537C5.72093 21.9448 4.45599 21.416 3.52135 20.4816C2.58671 19.5472 2.05754 18.2825 2.04831 16.9609C2.03908 15.6393 2.55054 14.3673 3.47204 13.4199L6.73404 10.155C6.92155 9.96731 7.02684 9.71287 7.02675 9.4476C7.02665 9.18233 6.92118 8.92796 6.73354 8.74046C6.5459 8.55295 6.29146 8.44766 6.02619 8.44775C5.76092 8.44785 5.50655 8.55332 5.31904 8.74096L2.05804 12.0059C0.740315 13.3243 0.000285724 15.1122 0.000754579 16.9762C0.00122343 18.8402 0.742151 20.6277 2.06054 21.9454C3.37893 23.2632 5.16679 24.0032 7.03081 24.0027C8.89483 24.0022 10.6823 23.2613 12 21.9429L15.262 18.6809C15.4442 18.4923 15.545 18.2397 15.5427 17.9775C15.5404 17.7153 15.4353 17.4645 15.2499 17.2791C15.0645 17.0937 14.8136 16.9885 14.5514 16.9863C14.2892 16.984 14.0366 17.0848 13.848 17.2669H13.845Z" fill="#374957"/>
<path d="M21.9441 2.06145C21.2934 1.40627 20.5191 0.886731 19.6662 0.532948C18.8132 0.179165 17.8985 -0.00182921 16.9751 0.000451887V0.000451887C16.0522 -0.00199984 15.1379 0.17853 14.2852 0.531603C13.4324 0.884677 12.6582 1.40329 12.0071 2.05745L8.7401 5.32045C8.55246 5.50796 8.44699 5.76233 8.4469 6.0276C8.44681 6.29287 8.55209 6.54731 8.7396 6.73495C8.92711 6.92259 9.18148 7.02806 9.44675 7.02816C9.71202 7.02825 9.96646 6.92296 10.1541 6.73545L13.4191 3.47345C13.8847 3.0051 14.4385 2.63375 15.0485 2.38091C15.6586 2.12807 16.3127 1.99875 16.9731 2.00045V2.00045C17.9674 2.00078 18.9392 2.29588 19.7658 2.84845C20.5924 3.40102 21.2366 4.18625 21.6169 5.10487C21.9973 6.0235 22.0968 7.03427 21.9028 8.00943C21.7088 8.98458 21.2301 9.88034 20.5271 10.5835L17.2651 13.8455C17.0775 14.0331 16.972 14.2876 16.972 14.553C16.972 14.8183 17.0775 15.0728 17.2651 15.2605C17.4527 15.4481 17.7072 15.5535 17.9726 15.5535C18.238 15.5535 18.4925 15.4481 18.6801 15.2605L21.9421 12.0005C23.2581 10.6815 23.9974 8.89456 23.9978 7.03137C23.9982 5.16818 23.2596 3.38089 21.9441 2.06145V2.06145Z" fill="#374957"/>
<path d="M14.2932 8.2931L8.2932 14.2931C8.19769 14.3853 8.12151 14.4957 8.0691 14.6177C8.01669 14.7397 7.98911 14.8709 7.98795 15.0037C7.9868 15.1365 8.0121 15.2681 8.06238 15.391C8.11266 15.5139 8.18692 15.6256 8.28081 15.7195C8.3747 15.8134 8.48635 15.8876 8.60925 15.9379C8.73215 15.9882 8.86382 16.0135 8.9966 16.0123C9.12938 16.0112 9.2606 15.9836 9.38261 15.9312C9.50461 15.8788 9.61496 15.8026 9.7072 15.7071L15.7072 9.7071C15.8894 9.5185 15.9902 9.2659 15.9879 9.0037C15.9856 8.7415 15.8804 8.49069 15.695 8.30528C15.5096 8.11987 15.2588 8.01471 14.9966 8.01243C14.7344 8.01015 14.4818 8.11094 14.2932 8.2931Z" fill="#374957"/>
</g>
<defs>
<clipPath id="clip0_93_35">
<rect width="24" height="24" fill="white"/>
</clipPath>
</defs>
</svg>
