<svg width="24" height="24" viewBox="0 0 24 24" fill="none" xmlns="http://www.w3.org/2000/svg">
    <path fill-rule="evenodd" clip-rule="evenodd" d="M21.8538 20.1464C21.8723 19.8866 21.8807 19.6243 21.8807 19.3595C21.8807 16.7818 19.8882 17.454 18.8292 19.5244C17.5463 22.0324 15.3113 23.6236 12.8103 23.942C12.5463 23.9764 12.2761 23.9959 12 24C11.7239 23.9959 11.4537 23.9764 11.1897 23.942C8.68874 23.6236 6.45367 22.0324 5.17084 19.5244C4.11185 17.454 2.11928 16.7818 2.11928 19.3595C2.11928 19.6243 2.12766 19.8866 2.14617 20.1464C2.21872 21.1645 1.73674 22.2961 1.03087 22.2961C0.659098 22.2961 0.31601 21.979 0.214701 21.4603C0.065237 20.6951 0 19.9036 0 19.3233C0 11.9613 3.56399 3.86878 8.2408 1.00313C9.16695 0.435646 10.4234 0.0966587 11.5979 0.0171146C11.7305 0.00774765 11.8645 0.00202179 12 0C12.1355 0.00202179 12.2695 0.00774765 12.4021 0.0171146C13.5766 0.0966587 14.833 0.435646 15.7592 1.00313C20.436 3.86878 24 11.9613 24 19.3233C24 19.9036 23.9348 20.6951 23.7853 21.4603C23.684 21.979 23.3409 22.2961 22.9691 22.2961C22.2633 22.2961 21.7813 21.1645 21.8538 20.1464ZM12.1641 2.90839C12.1094 2.90744 12.0547 2.90697 12 2.90697C11.9419 2.90697 11.8839 2.9075 11.8261 2.90857C8.39954 2.97192 5.42757 7.4009 5.42757 12C5.42757 16.6037 8.40544 18.5492 11.8363 18.6089C11.8908 18.6098 11.9453 18.6103 12 18.6103C12.057 18.6103 12.1141 18.6098 12.1712 18.6087C15.5989 18.5464 18.5724 16.6003 18.5724 12C18.5724 7.39653 15.5948 2.96821 12.1641 2.90839Z" fill="#4369FC"/>
</svg>
