<svg width="16" height="16" viewBox="0 0 16 16" fill="none" xmlns="http://www.w3.org/2000/svg">
<g clip-path="url(#clip0_1279_9588)">
<path d="M15.9999 7.49789C15.9035 5.9379 15.3527 4.44023 14.4154 3.1895C13.4781 1.93878 12.1952 0.989683 10.725 0.459218C9.25485 -0.0712477 7.66157 -0.15989 6.14161 0.204218C4.62165 0.568326 3.24146 1.36927 2.1712 2.5083C1.10094 3.64733 0.387392 5.07466 0.118526 6.61433C-0.15034 8.15399 0.0372289 9.73868 0.658109 11.173C1.27899 12.6074 2.30604 13.8287 3.61264 14.6864C4.91924 15.5441 6.44827 16.0007 8.01123 15.9999H12.6666C13.5503 15.999 14.3977 15.6475 15.0226 15.0226C15.6475 14.3977 15.999 13.5503 15.9999 12.6666V7.49789ZM14.6666 12.6666C14.6666 13.197 14.4559 13.7057 14.0808 14.0808C13.7057 14.4558 13.197 14.6666 12.6666 14.6666H8.01123C7.07052 14.6661 6.14046 14.4674 5.2817 14.0834C4.42293 13.6994 3.65475 13.1387 3.02723 12.4379C2.39668 11.7374 1.92318 10.9102 1.63849 10.0117C1.3538 9.11329 1.2645 8.16435 1.37656 7.22855C1.55352 5.75252 2.21669 4.37735 3.26153 3.31984C4.30636 2.26233 5.67343 1.58263 7.14723 1.38789C7.43472 1.35185 7.72416 1.3336 8.0139 1.33322C9.56755 1.32898 11.0731 1.87182 12.2666 2.86655C12.9636 3.44585 13.5357 4.16066 13.9483 4.96764C14.3608 5.77463 14.6052 6.65698 14.6666 7.56122V12.6666Z" fill="#99A2AD"/>
<path d="M5.33323 5.99984H7.9999C8.17671 5.99984 8.34628 5.9296 8.4713 5.80457C8.59633 5.67955 8.66657 5.50998 8.66657 5.33317C8.66657 5.15636 8.59633 4.98679 8.4713 4.86177C8.34628 4.73674 8.17671 4.6665 7.9999 4.6665H5.33323C5.15642 4.6665 4.98685 4.73674 4.86183 4.86177C4.7368 4.98679 4.66656 5.15636 4.66656 5.33317C4.66656 5.50998 4.7368 5.67955 4.86183 5.80457C4.98685 5.9296 5.15642 5.99984 5.33323 5.99984Z" fill="#99A2AD"/>
<path d="M10.6666 7.3335H5.33323C5.15642 7.3335 4.98685 7.40373 4.86183 7.52876C4.7368 7.65378 4.66656 7.82335 4.66656 8.00017C4.66656 8.17698 4.7368 8.34655 4.86183 8.47157C4.98685 8.5966 5.15642 8.66684 5.33323 8.66684H10.6666C10.8434 8.66684 11.0129 8.5966 11.138 8.47157C11.263 8.34655 11.3332 8.17698 11.3332 8.00017C11.3332 7.82335 11.263 7.65378 11.138 7.52876C11.0129 7.40373 10.8434 7.3335 10.6666 7.3335Z" fill="#99A2AD"/>
<path d="M10.6666 10H5.33323C5.15642 10 4.98685 10.0702 4.86183 10.1953C4.7368 10.3203 4.66656 10.4899 4.66656 10.6667C4.66656 10.8435 4.7368 11.0131 4.86183 11.1381C4.98685 11.2631 5.15642 11.3333 5.33323 11.3333H10.6666C10.8434 11.3333 11.0129 11.2631 11.138 11.1381C11.263 11.0131 11.3332 10.8435 11.3332 10.6667C11.3332 10.4899 11.263 10.3203 11.138 10.1953C11.0129 10.0702 10.8434 10 10.6666 10Z" fill="#99A2AD"/>
</g>
<defs>
<clipPath id="clip0_1279_9588">
<rect width="16" height="16" fill="white"/>
</clipPath>
</defs>
</svg>
