<svg width="16" height="16" viewBox="0 0 16 16" fill="none" xmlns="http://www.w3.org/2000/svg">
    <g clip-path="url(#clip0_172_208)">
        <path d="M12.6667 0.666992H8.66667C7.78294 0.668051 6.93571 1.01958 6.31081 1.64447C5.68592 2.26936 5.33439 3.1166 5.33333 4.00033V9.35099C4.75974 8.90979 4.05698 8.66944 3.33333 8.66699C2.67406 8.66699 2.0296 8.86249 1.48143 9.22876C0.93327 9.59503 0.506029 10.1156 0.253736 10.7247C0.00144428 11.3338 -0.0645668 12.004 0.0640506 12.6506C0.192668 13.2972 0.510137 13.8912 0.976312 14.3573C1.44249 14.8235 2.03643 15.141 2.68303 15.2696C3.32964 15.3982 3.99986 15.3322 4.60895 15.0799C5.21803 14.8276 5.73863 14.4004 6.1049 13.8522C6.47117 13.3041 6.66667 12.6596 6.66667 12.0003V4.00033C6.66667 3.46989 6.87738 2.96118 7.25245 2.58611C7.62753 2.21104 8.13624 2.00033 8.66667 2.00033H12.6667C13.1971 2.00033 13.7058 2.21104 14.0809 2.58611C14.456 2.96118 14.6667 3.46989 14.6667 4.00033V9.35099C14.0931 8.90979 13.3903 8.66944 12.6667 8.66699C12.0074 8.66699 11.3629 8.86249 10.8148 9.22876C10.2666 9.59503 9.83936 10.1156 9.58707 10.7247C9.33478 11.3338 9.26877 12.004 9.39738 12.6506C9.526 13.2972 9.84347 13.8912 10.3096 14.3573C10.7758 14.8235 11.3698 15.141 12.0164 15.2696C12.663 15.3982 13.3332 15.3322 13.9423 15.0799C14.5514 14.8276 15.072 14.4004 15.4382 13.8522C15.8045 13.3041 16 12.6596 16 12.0003V4.00033C15.9989 3.1166 15.6474 2.26936 15.0225 1.64447C14.3976 1.01958 13.5504 0.668051 12.6667 0.666992ZM3.33333 14.0003C2.93777 14.0003 2.55109 13.883 2.22219 13.6633C1.8933 13.4435 1.63695 13.1311 1.48558 12.7657C1.3342 12.4002 1.29459 11.9981 1.37176 11.6101C1.44893 11.2222 1.63942 10.8658 1.91912 10.5861C2.19883 10.3064 2.55519 10.1159 2.94315 10.0388C3.33112 9.96159 3.73325 10.0012 4.0987 10.1526C4.46415 10.3039 4.77651 10.5603 4.99627 10.8892C5.21604 11.2181 5.33333 11.6048 5.33333 12.0003C5.33333 12.5308 5.12262 13.0395 4.74755 13.4145C4.37248 13.7896 3.86377 14.0003 3.33333 14.0003ZM12.6667 14.0003C12.2711 14.0003 11.8844 13.883 11.5555 13.6633C11.2266 13.4435 10.9703 13.1311 10.8189 12.7657C10.6675 12.4002 10.6279 11.9981 10.7051 11.6101C10.7823 11.2222 10.9727 10.8658 11.2525 10.5861C11.5322 10.3064 11.8885 10.1159 12.2765 10.0388C12.6644 9.96159 13.0666 10.0012 13.432 10.1526C13.7975 10.3039 14.1098 10.5603 14.3296 10.8892C14.5494 11.2181 14.6667 11.6048 14.6667 12.0003C14.6667 12.5308 14.456 13.0395 14.0809 13.4145C13.7058 13.7896 13.1971 14.0003 12.6667 14.0003Z" fill="#4369FC"/>
    </g>
    <defs>
        <clipPath id="clip0_172_208">
            <rect width="16" height="16" fill="white"/>
        </clipPath>
    </defs>
</svg>
