<svg width="24" height="24" viewBox="0 0 24 24" fill="none" xmlns="http://www.w3.org/2000/svg">
<path d="M10 15.997C10 16.8847 11.073 17.3296 11.7011 16.7023L14.2958 14.1113C14.8576 13.5496 15.1732 12.7882 15.1732 11.9943C15.1732 11.2005 14.8576 10.4391 14.2958 9.87737L11.7011 7.28636C11.073 6.65912 10 7.104 10 7.99169C10 8.25705 10.1058 8.51146 10.294 8.69855L12.8958 11.2854C12.9895 11.3782 13.0639 11.4886 13.1147 11.6103C13.1655 11.732 13.1916 11.8625 13.1916 11.9943C13.1916 12.1262 13.1655 12.2567 13.1147 12.3784C13.0639 12.5001 12.9895 12.6105 12.8958 12.7033L10.294 15.2901C10.1058 15.4772 10 15.7316 10 15.997Z" fill="black"/>
</svg>
