<svg width="16" height="16" viewBox="0 0 16 16" fill="none" xmlns="http://www.w3.org/2000/svg">
<path d="M4.33333 0C3.71449 0 3.121 0.245833 2.68342 0.683417C2.24583 1.121 2 1.71449 2 2.33333V13.6667C2 14.2855 2.24583 14.879 2.68342 15.3166C3.121 15.7542 3.71449 16 4.33333 16C4.95217 16 5.54566 15.7542 5.98325 15.3166C6.42083 14.879 6.66667 14.2855 6.66667 13.6667V2.33333C6.66667 1.71449 6.42083 1.121 5.98325 0.683417C5.54566 0.245833 4.95217 0 4.33333 0V0Z" fill="#99A2AD"/>
<path d="M11.6673 0C11.0485 0 10.455 0.245833 10.0174 0.683417C9.57982 1.121 9.33398 1.71449 9.33398 2.33333V13.6667C9.33398 14.2855 9.57982 14.879 10.0174 15.3166C10.455 15.7542 11.0485 16 11.6673 16C12.2862 16 12.8796 15.7542 13.3172 15.3166C13.7548 14.879 14.0007 14.2855 14.0007 13.6667V2.33333C14.0007 1.71449 13.7548 1.121 13.3172 0.683417C12.8796 0.245833 12.2862 0 11.6673 0V0Z" fill="#99A2AD"/>
</svg>
