<svg width="16" height="16" viewBox="0 0 16 16" fill="none" xmlns="http://www.w3.org/2000/svg">
    <g clip-path="url(#clip0_172_202)">
        <path d="M12.6667 0H3.33333C2.4496 0.00105857 1.60237 0.352588 0.97748 0.97748C0.352588 1.60237 0.00105857 2.4496 0 3.33333L0 12.6667C0.00105857 13.5504 0.352588 14.3976 0.97748 15.0225C1.60237 15.6474 2.4496 15.9989 3.33333 16H12.6667C13.5504 15.9989 14.3976 15.6474 15.0225 15.0225C15.6474 14.3976 15.9989 13.5504 16 12.6667V3.33333C15.9989 2.4496 15.6474 1.60237 15.0225 0.97748C14.3976 0.352588 13.5504 0.00105857 12.6667 0ZM3.33333 1.33333H12.6667C13.1971 1.33333 13.7058 1.54405 14.0809 1.91912C14.456 2.29419 14.6667 2.8029 14.6667 3.33333V12.6667C14.6655 12.9637 14.5971 13.2565 14.4667 13.5233L8.358 7.41467C8.04846 7.10504 7.68096 6.85944 7.27648 6.69186C6.87201 6.52429 6.43848 6.43805 6.00067 6.43805C5.56285 6.43805 5.12933 6.52429 4.72485 6.69186C4.32038 6.85944 3.95287 7.10504 3.64333 7.41467L1.33333 9.724V3.33333C1.33333 2.8029 1.54405 2.29419 1.91912 1.91912C2.29419 1.54405 2.8029 1.33333 3.33333 1.33333ZM3.33333 14.6667C2.8029 14.6667 2.29419 14.456 1.91912 14.0809C1.54405 13.7058 1.33333 13.1971 1.33333 12.6667V11.6093L4.58533 8.35733C4.77107 8.17148 4.9916 8.02405 5.23434 7.92346C5.47707 7.82287 5.73725 7.77109 6 7.77109C6.26275 7.77109 6.52293 7.82287 6.76566 7.92346C7.0084 8.02405 7.22893 8.17148 7.41467 8.35733L13.5233 14.4667C13.2565 14.5971 12.9637 14.6655 12.6667 14.6667H3.33333Z" fill="#4369FC"/>
        <path d="M10.6668 6.99968C11.1283 6.99968 11.5794 6.86283 11.9632 6.60644C12.3469 6.35005 12.6459 5.98563 12.8225 5.55927C12.9992 5.13291 13.0454 4.66375 12.9553 4.21113C12.8653 3.75851 12.6431 3.34275 12.3167 3.01643C11.9904 2.6901 11.5747 2.46788 11.122 2.37784C10.6694 2.28781 10.2003 2.33402 9.7739 2.51062C9.34754 2.68723 8.98312 2.9863 8.72673 3.37001C8.47034 3.75373 8.3335 4.20485 8.3335 4.66634C8.3335 5.28518 8.57933 5.87867 9.01691 6.31626C9.4545 6.75384 10.048 6.99968 10.6668 6.99968ZM10.6668 3.66634C10.8646 3.66634 11.058 3.72499 11.2224 3.83487C11.3868 3.94475 11.515 4.10093 11.5907 4.28366C11.6664 4.46638 11.6862 4.66745 11.6476 4.86143C11.609 5.05541 11.5138 5.2336 11.3739 5.37345C11.2341 5.5133 11.0559 5.60854 10.8619 5.64713C10.6679 5.68571 10.4669 5.66591 10.2841 5.59022C10.1014 5.51453 9.94524 5.38636 9.83536 5.22191C9.72548 5.05746 9.66683 4.86412 9.66683 4.66634C9.66683 4.40113 9.77219 4.14677 9.95972 3.95924C10.1473 3.7717 10.4016 3.66634 10.6668 3.66634Z" fill="#4369FC"/>
    </g>
    <defs>
        <clipPath id="clip0_172_202">
            <rect width="16" height="16" fill="white"/>
        </clipPath>
    </defs>
</svg>
