<svg width="16" height="16" viewBox="0 0 16 16" fill="none" xmlns="http://www.w3.org/2000/svg">
<g clip-path="url(#clip0_2344_26572)">
<path d="M13.6613 5.31296L7.30267 0.65029C6.80602 0.286613 6.21837 0.0675647 5.60485 0.0174251C4.99133 -0.0327145 4.3759 0.0880131 3.8268 0.366226C3.27769 0.644439 2.81634 1.06927 2.4939 1.59363C2.17146 2.11799 2.00051 2.72139 2 3.33696V12.667C1.99905 13.2831 2.1691 13.8875 2.49124 14.4127C2.81337 14.938 3.27495 15.3635 3.8246 15.642C4.37425 15.9205 4.99039 16.041 5.60445 15.9901C6.21851 15.9392 6.8064 15.7188 7.30267 15.3536L13.6613 10.691C14.0833 10.3813 14.4263 9.9767 14.6628 9.50983C14.8993 9.04296 15.0225 8.52697 15.0225 8.00362C15.0225 7.48028 14.8993 6.96429 14.6628 6.49742C14.4263 6.03055 14.0833 5.62592 13.6613 5.31629V5.31296Z" fill="#99A2AD"/>
</g>
<defs>
<clipPath id="clip0_2344_26572">
<rect width="16" height="16" fill="white"/>
</clipPath>
</defs>
</svg>
