<svg width="118" height="20" viewBox="0 0 118 20" fill="none" xmlns="http://www.w3.org/2000/svg">
    <path d="M17.144 9.028C17.144 10.612 16.824 12.036 16.184 13.3C15.544 14.564 14.648 15.58 13.496 16.348L15.848 19.924H13.112L11.408 17.332C10.512 17.604 9.576 17.74 8.6 17.74C6.936 17.74 5.448 17.372 4.136 16.636C2.84 15.884 1.824 14.852 1.088 13.54C0.368 12.212 0.00800008 10.708 0.00800008 9.028C0.00800008 7.348 0.368 5.852 1.088 4.54C1.824 3.212 2.84 2.18 4.136 1.444C5.448 0.707999 6.936 0.339999 8.6 0.339999C10.248 0.339999 11.72 0.707999 13.016 1.444C14.312 2.18 15.32 3.212 16.04 4.54C16.776 5.852 17.144 7.348 17.144 9.028ZM8.6 15.46C9.144 15.46 9.632 15.404 10.064 15.292L7.496 11.404H10.232L12.176 14.332C12.928 13.772 13.512 13.036 13.928 12.124C14.36 11.212 14.576 10.18 14.576 9.028C14.576 7.78 14.32 6.676 13.808 5.716C13.312 4.74 12.608 3.98 11.696 3.436C10.8 2.892 9.768 2.62 8.6 2.62C7.432 2.62 6.392 2.892 5.48 3.436C4.568 3.98 3.856 4.74 3.344 5.716C2.848 6.676 2.6 7.78 2.6 9.028C2.6 10.292 2.848 11.412 3.344 12.388C3.856 13.348 4.568 14.1 5.48 14.644C6.392 15.188 7.432 15.46 8.6 15.46ZM24.2919 17.74C23.4119 17.74 22.6199 17.524 21.9159 17.092C21.2119 16.644 20.6599 16.036 20.2599 15.268C19.8599 14.484 19.6599 13.604 19.6599 12.628V5.092H22.0119V12.436C22.0119 13.38 22.2759 14.148 22.8039 14.74C23.3319 15.332 24.0119 15.628 24.8439 15.628C25.7079 15.628 26.4279 15.324 27.0039 14.716C27.5799 14.108 27.8679 13.348 27.8679 12.436V5.092H30.2199V17.5H28.5399L27.9879 15.628C27.5879 16.3 27.0599 16.82 26.4039 17.188C25.7639 17.556 25.0599 17.74 24.2919 17.74ZM35.9159 17.5H33.5639V5.092H35.9159V17.5ZM34.7639 3.124C34.3159 3.124 33.9479 2.988 33.6599 2.716C33.3719 2.444 33.2279 2.084 33.2279 1.636C33.2279 1.204 33.3719 0.851999 33.6599 0.579999C33.9479 0.291999 34.3159 0.147999 34.7639 0.147999C35.1799 0.147999 35.5319 0.291999 35.8199 0.579999C36.1079 0.851999 36.2519 1.204 36.2519 1.636C36.2519 2.068 36.1079 2.428 35.8199 2.716C35.5479 2.988 35.1959 3.124 34.7639 3.124ZM44.9919 17.74C43.7599 17.74 42.6479 17.468 41.6559 16.924C40.6799 16.364 39.9199 15.596 39.3759 14.62C38.8319 13.644 38.5599 12.54 38.5599 11.308C38.5599 10.06 38.8319 8.948 39.3759 7.972C39.9199 6.996 40.6799 6.236 41.6559 5.692C42.6319 5.132 43.7439 4.852 44.9919 4.852C46.3199 4.852 47.5039 5.172 48.5439 5.812C49.5999 6.452 50.3519 7.372 50.7999 8.572L48.5919 8.932C48.3039 8.356 47.8479 7.892 47.2239 7.54C46.6159 7.188 45.9199 7.012 45.1359 7.012C43.9199 7.012 42.9279 7.412 42.1599 8.212C41.4079 9.012 41.0319 10.044 41.0319 11.308C41.0319 12.572 41.4079 13.604 42.1599 14.404C42.9279 15.188 43.9199 15.58 45.1359 15.58C45.9519 15.58 46.6719 15.396 47.2959 15.028C47.9359 14.66 48.3999 14.172 48.6879 13.564L50.8959 13.924C50.4479 15.14 49.6799 16.084 48.5919 16.756C47.5199 17.412 46.3199 17.74 44.9919 17.74ZM63.8399 17.5H60.7439L56.1599 12.364H55.4159V17.5H53.0639V0.579999H55.4159V10.108H56.1359L60.5279 5.092H63.3599L58.0319 11.092L63.8399 17.5ZM68.2184 17.5H65.7464V0.579999H76.4264V2.86H68.2184V8.26H75.6584V10.54H68.2184V17.5ZM81.6425 17.5H79.2905V0.579999H81.6425V17.5ZM90.8384 17.74C89.5744 17.74 88.4464 17.468 87.4544 16.924C86.4624 16.38 85.6864 15.62 85.1264 14.644C84.5664 13.668 84.2864 12.556 84.2864 11.308C84.2864 10.06 84.5664 8.948 85.1264 7.972C85.6864 6.996 86.4624 6.236 87.4544 5.692C88.4464 5.132 89.5744 4.852 90.8384 4.852C92.1024 4.852 93.2304 5.132 94.2224 5.692C95.2144 6.236 95.9904 6.996 96.5504 7.972C97.1104 8.948 97.3904 10.06 97.3904 11.308C97.3904 12.556 97.1104 13.668 96.5504 14.644C95.9904 15.62 95.2144 16.38 94.2224 16.924C93.2304 17.468 92.1024 17.74 90.8384 17.74ZM90.8384 15.58C92.0544 15.58 93.0384 15.188 93.7904 14.404C94.5584 13.62 94.9424 12.588 94.9424 11.308C94.9424 10.028 94.5584 8.996 93.7904 8.212C93.0384 7.412 92.0544 7.012 90.8384 7.012C89.6224 7.012 88.6384 7.412 87.8864 8.212C87.1344 8.996 86.7584 10.028 86.7584 11.308C86.7584 12.572 87.1344 13.604 87.8864 14.404C88.6384 15.188 89.6224 15.58 90.8384 15.58ZM105.27 17.5H101.766L98.3583 5.092H100.782L103.47 15.196H103.806L106.518 5.092H109.11L111.774 15.196H112.134L114.798 5.092H117.126L113.79 17.5H110.286L107.958 8.572H107.598L105.27 17.5Z" fill="#4369FC"/>
</svg>
