<svg width="22" height="23" viewBox="0 0 22 23" fill="none" xmlns="http://www.w3.org/2000/svg">
<g clip-path="url(#clip0_445_120)">
<path d="M0 21.3333V12.7034C0.00242628 10.5161 0.872399 8.41913 2.41905 6.87248C3.9657 5.32584 6.06271 4.45586 8.25 4.45344H12.6775V2.08294C12.6776 1.7204 12.7851 1.36602 12.9866 1.0646C13.1881 0.763183 13.4744 0.528261 13.8093 0.389533C14.1443 0.250805 14.5128 0.214499 14.8684 0.285206C15.224 0.355913 15.5506 0.530458 15.807 0.786775L21.197 7.09252C21.7125 7.60822 22.0022 8.30757 22.0022 9.03677C22.0022 9.76597 21.7125 10.4653 21.197 10.981L15.807 17.2868C15.5506 17.5431 15.224 17.7176 14.8684 17.7883C14.5128 17.859 14.1443 17.8227 13.8093 17.684C13.4744 17.5453 13.1881 17.3103 12.9866 17.0089C12.7851 16.7075 12.6776 16.3531 12.6775 15.9906V13.6201H7.33333C5.87509 13.6215 4.47699 14.2015 3.44585 15.2326C1.56485 17.1136 1.83479 19.8751 1.83333 21.3333C1.83333 21.5764 1.73676 21.8096 1.56485 21.9815C1.39294 22.1534 1.15978 22.25 0.916667 22.25C0.673552 22.25 0.440394 22.1534 0.268485 21.9815C0.0965771 21.8096 0 21.5764 0 21.3333ZM14.5108 5.3701C14.5108 5.61322 14.4143 5.84638 14.2423 6.01828C14.0704 6.19019 13.8373 6.28677 13.5942 6.28677H8.25C6.54879 6.28871 4.91781 6.96537 3.71488 8.16831C2.51194 9.37124 1.83527 11.0022 1.83333 12.7034V14.2746C2.52044 13.4926 3.36645 12.8662 4.31489 12.4372C5.26333 12.0082 6.29238 11.7865 7.33333 11.7868H13.5942C13.8373 11.7868 14.0704 11.8833 14.2423 12.0552C14.4143 12.2272 14.5108 12.4603 14.5108 12.7034V15.9906L19.8999 9.68485C20.0718 9.51295 20.1683 9.27983 20.1683 9.03677C20.1683 8.7937 20.0718 8.56058 19.8999 8.38868L14.5108 2.08294V5.3701Z" fill="#99A2AD"/>
</g>
<defs>
<clipPath id="clip0_445_120">
<rect width="22" height="22" fill="white" transform="translate(0 0.25)"/>
</clipPath>
</defs>
</svg>
