<svg width="10" height="10" viewBox="0 0 10 10" fill="none" xmlns="http://www.w3.org/2000/svg">
<path d="M9.47354 2.47357C9.41156 2.41108 9.33783 2.36148 9.25659 2.32764C9.17535 2.29379 9.08821 2.27637 9.0002 2.27637C8.9122 2.27637 8.82506 2.29379 8.74382 2.32764C8.66258 2.36148 8.58885 2.41108 8.52687 2.47357L5.47354 5.52689C5.41156 5.58938 5.33783 5.63897 5.25659 5.67282C5.17535 5.70667 5.08821 5.72409 5.0002 5.72409C4.9122 5.72409 4.82506 5.70667 4.74382 5.67282C4.66258 5.63897 4.58884 5.58938 4.52687 5.52689L1.47354 2.47357C1.41156 2.41108 1.33783 2.36148 1.25659 2.32764C1.17535 2.29379 1.08821 2.27637 1.0002 2.27637C0.912195 2.27637 0.825058 2.29379 0.743818 2.32764C0.662579 2.36148 0.588845 2.41108 0.526869 2.47357C0.402702 2.59847 0.333008 2.76744 0.333008 2.94356C0.333008 3.11969 0.402702 3.28866 0.526869 3.41356L3.58687 6.47356C3.96187 6.84809 4.4702 7.05846 5.0002 7.05846C5.5302 7.05846 6.03854 6.84809 6.41354 6.47356L9.47354 3.41356C9.5977 3.28866 9.6674 3.11969 9.6674 2.94356C9.6674 2.76744 9.5977 2.59847 9.47354 2.47357Z" fill="#99A2AD"/>
</svg>
