<svg width="16" height="17" viewBox="0 0 16 17" fill="none" xmlns="http://www.w3.org/2000/svg">
<g clip-path="url(#clip0_1733_10488)">
<path d="M15.3327 7.83398H13.9993V6.50065C13.9993 6.32384 13.9291 6.15427 13.8041 6.02925C13.6791 5.90422 13.5095 5.83398 13.3327 5.83398C13.1559 5.83398 12.9863 5.90422 12.8613 6.02925C12.7362 6.15427 12.666 6.32384 12.666 6.50065V7.83398H11.3327C11.1559 7.83398 10.9863 7.90422 10.8613 8.02924C10.7363 8.15427 10.666 8.32384 10.666 8.50065C10.666 8.67746 10.7363 8.84703 10.8613 8.97205C10.9863 9.09707 11.1559 9.16731 11.3327 9.16731H12.666V10.5006C12.666 10.6775 12.7362 10.847 12.8613 10.972C12.9863 11.0971 13.1559 11.1673 13.3327 11.1673C13.5095 11.1673 13.6791 11.0971 13.8041 10.972C13.9291 10.847 13.9993 10.6775 13.9993 10.5006V9.16731H15.3327C15.5095 9.16731 15.6791 9.09707 15.8041 8.97205C15.9291 8.84703 15.9993 8.67746 15.9993 8.50065C15.9993 8.32384 15.9291 8.15427 15.8041 8.02924C15.6791 7.90422 15.5095 7.83398 15.3327 7.83398Z" fill="#4369FC"/>
<path d="M6 8.5C6.79113 8.5 7.56449 8.26541 8.22228 7.82588C8.88008 7.38635 9.39277 6.76164 9.69552 6.03074C9.99827 5.29983 10.0775 4.49556 9.92314 3.71964C9.7688 2.94372 9.38784 2.23098 8.82843 1.67157C8.26902 1.11216 7.55629 0.731202 6.78036 0.576861C6.00444 0.42252 5.20017 0.501733 4.46927 0.804484C3.73836 1.10723 3.11365 1.61992 2.67412 2.27772C2.2346 2.93552 2 3.70888 2 4.5C2.00106 5.56054 2.42283 6.57734 3.17274 7.32726C3.92266 8.07718 4.93946 8.49894 6 8.5ZM6 1.83334C6.52742 1.83334 7.04299 1.98973 7.48152 2.28275C7.92005 2.57577 8.26185 2.99224 8.46368 3.47951C8.66551 3.96678 8.71832 4.50296 8.61543 5.02024C8.51253 5.53753 8.25856 6.01268 7.88562 6.38562C7.51268 6.75856 7.03752 7.01254 6.52024 7.11543C6.00296 7.21832 5.46678 7.16551 4.97951 6.96368C4.49224 6.76185 4.07576 6.42005 3.78275 5.98152C3.48973 5.54299 3.33333 5.02742 3.33333 4.5C3.33333 3.79276 3.61428 3.11448 4.11438 2.61438C4.61448 2.11429 5.29276 1.83334 6 1.83334Z" fill="#4369FC"/>
<path d="M6 9.83398C4.40924 9.83575 2.88414 10.4685 1.75931 11.5933C0.634472 12.7181 0.00176457 14.2432 0 15.834C0 16.0108 0.0702379 16.1804 0.195262 16.3054C0.320286 16.4304 0.489856 16.5007 0.666667 16.5007C0.843478 16.5007 1.01305 16.4304 1.13807 16.3054C1.2631 16.1804 1.33333 16.0108 1.33333 15.834C1.33333 14.5963 1.825 13.4093 2.70017 12.5342C3.57534 11.659 4.76232 11.1673 6 11.1673C7.23768 11.1673 8.42466 11.659 9.29983 12.5342C10.175 13.4093 10.6667 14.5963 10.6667 15.834C10.6667 16.0108 10.7369 16.1804 10.8619 16.3054C10.987 16.4304 11.1565 16.5007 11.3333 16.5007C11.5101 16.5007 11.6797 16.4304 11.8047 16.3054C11.9298 16.1804 12 16.0108 12 15.834C11.9982 14.2432 11.3655 12.7181 10.2407 11.5933C9.11586 10.4685 7.59076 9.83575 6 9.83398Z" fill="#4369FC"/>
</g>
<defs>
<clipPath id="clip0_1733_10488">
<rect width="16" height="16" fill="white" transform="translate(0 0.5)"/>
</clipPath>
</defs>
</svg>
