<svg width="16" height="16" viewBox="0 0 16 16" fill="none" xmlns="http://www.w3.org/2000/svg">
<g clip-path="url(#clip0_1590_6916)">
<path d="M11.3333 16C11.1565 16 10.987 15.9298 10.8619 15.8047C10.7369 15.6797 10.6667 15.5101 10.6667 15.3333C10.6667 14.0957 10.175 12.9087 9.29983 12.0335C8.42466 11.1583 7.23768 10.6667 6 10.6667C4.76232 10.6667 3.57534 11.1583 2.70017 12.0335C1.825 12.9087 1.33333 14.0957 1.33333 15.3333C1.33333 15.5101 1.2631 15.6797 1.13807 15.8047C1.01305 15.9298 0.843478 16 0.666667 16C0.489856 16 0.320286 15.9298 0.195262 15.8047C0.0702379 15.6797 0 15.5101 0 15.3333C0 13.742 0.632141 12.2159 1.75736 11.0907C2.88258 9.96548 4.4087 9.33334 6 9.33334C7.5913 9.33334 9.11742 9.96548 10.2426 11.0907C11.3679 12.2159 12 13.742 12 15.3333C12 15.5101 11.9298 15.6797 11.8047 15.8047C11.6797 15.9298 11.5101 16 11.3333 16ZM15.3333 8.66667H11.3333C11.1565 8.66667 10.987 8.59643 10.8619 8.47141C10.7369 8.34638 10.6667 8.17681 10.6667 8C10.6667 7.82319 10.7369 7.65362 10.8619 7.5286C10.987 7.40357 11.1565 7.33334 11.3333 7.33334H15.3333C15.5101 7.33334 15.6797 7.40357 15.8047 7.5286C15.9298 7.65362 16 7.82319 16 8C16 8.17681 15.9298 8.34638 15.8047 8.47141C15.6797 8.59643 15.5101 8.66667 15.3333 8.66667ZM6 8C5.20887 8 4.43552 7.76541 3.77772 7.32588C3.11992 6.88635 2.60723 6.26164 2.30448 5.53074C2.00173 4.79983 1.92252 3.99556 2.07686 3.21964C2.2312 2.44372 2.61216 1.73098 3.17157 1.17157C3.73098 0.612165 4.44372 0.231202 5.21964 0.0768607C5.99556 -0.0774802 6.79983 0.00173314 7.53073 0.304484C8.26164 0.607234 8.88635 1.11992 9.32588 1.77772C9.7654 2.43552 10 3.20888 10 4C9.99894 5.06054 9.57717 6.07734 8.82726 6.82726C8.07734 7.57718 7.06054 7.99894 6 8ZM6 1.33334C5.47258 1.33334 4.95701 1.48973 4.51848 1.78275C4.07995 2.07577 3.73816 2.49224 3.53632 2.97951C3.33449 3.46678 3.28168 4.00296 3.38457 4.52024C3.48747 5.03753 3.74144 5.51268 4.11438 5.88562C4.48732 6.25856 4.96248 6.51254 5.47976 6.61543C5.99704 6.71832 6.53322 6.66551 7.02049 6.46368C7.50776 6.26185 7.92424 5.92005 8.21725 5.48152C8.51027 5.04299 8.66667 4.52742 8.66667 4C8.66667 3.29276 8.38572 2.61448 7.88562 2.11438C7.38552 1.61429 6.70724 1.33334 6 1.33334Z" fill="#FF3B2F"/>
</g>
<defs>
<clipPath id="clip0_1590_6916">
<rect width="16" height="16" fill="white"/>
</clipPath>
</defs>
</svg>
