<svg width="16" height="16" viewBox="0 0 16 16" fill="none" xmlns="http://www.w3.org/2000/svg">
    <g clip-path="url(#clip0_172_230)">
        <path d="M13.4248 16C13.1782 15.9993 12.9342 15.9498 12.7068 15.8542C12.4794 15.7587 12.2732 15.619 12.1002 15.4433L8.00016 11.3673L3.90016 15.446C3.63685 15.7132 3.29916 15.8948 2.93111 15.9672C2.56306 16.0396 2.18173 15.9995 1.83683 15.852C1.48851 15.7119 1.19053 15.47 0.981802 15.1579C0.773077 14.8459 0.663309 14.4781 0.66683 14.1027V3.33333C0.66683 2.44928 1.01802 1.60143 1.64314 0.976311C2.26826 0.351189 3.11611 0 4.00016 0L12.0002 0C12.4379 0 12.8714 0.0862192 13.2758 0.253735C13.6802 0.421251 14.0477 0.666782 14.3572 0.976311C14.6667 1.28584 14.9122 1.6533 15.0798 2.05772C15.2473 2.46214 15.3335 2.89559 15.3335 3.33333V14.1027C15.3372 14.4778 15.2279 14.8453 15.0196 15.1574C14.8114 15.4694 14.514 15.7115 14.1662 15.852C13.9314 15.9502 13.6793 16.0005 13.4248 16ZM4.00016 1.33333C3.46973 1.33333 2.96102 1.54405 2.58595 1.91912C2.21088 2.29419 2.00016 2.8029 2.00016 3.33333V14.1027C1.99992 14.2138 2.03261 14.3224 2.0941 14.4149C2.15558 14.5075 2.24311 14.5797 2.34562 14.6225C2.44814 14.6653 2.56103 14.6768 2.67006 14.6554C2.77908 14.6341 2.87934 14.5809 2.95816 14.5027L7.5335 9.95533C7.65841 9.83117 7.82737 9.76147 8.0035 9.76147C8.17962 9.76147 8.34859 9.83117 8.4735 9.95533L13.0435 14.5013C13.1223 14.5796 13.2226 14.6328 13.3316 14.6541C13.4406 14.6754 13.5535 14.664 13.656 14.6212C13.7585 14.5784 13.8461 14.5061 13.9076 14.4136C13.9691 14.3211 14.0017 14.2124 14.0015 14.1013V3.33333C14.0015 2.8029 13.7908 2.29419 13.4157 1.91912C13.0406 1.54405 12.5319 1.33333 12.0015 1.33333H4.00016Z" fill="#4369FC"/>
    </g>
    <defs>
        <clipPath id="clip0_172_230">
            <rect width="16" height="16" fill="white"/>
        </clipPath>
    </defs>
</svg>
