<svg width="16" height="16" viewBox="0 0 16 16" fill="none" xmlns="http://www.w3.org/2000/svg">
<g clip-path="url(#clip0_913_15260)">
<path d="M15.81 1.52311C15.6834 1.39699 15.512 1.32617 15.3333 1.32617C15.1546 1.32617 14.9832 1.39699 14.8567 1.52311L11.6807 4.6991L11.4673 4.49044C10.9049 3.94107 10.1666 3.60783 9.38255 3.54941C8.5985 3.491 7.81898 3.71116 7.18133 4.1711C6.26103 4.8651 5.23805 5.41123 4.14933 5.78977L2.76667 6.1951C2.31736 6.32699 1.90062 6.55141 1.54321 6.85394C1.1858 7.15647 0.895626 7.53042 0.691333 7.95177C0.490404 8.36739 0.378492 8.82041 0.362765 9.28179C0.347037 9.74317 0.42784 10.2027 0.6 10.6311C1.25252 12.2329 2.37114 13.6019 3.81088 14.5604C5.25062 15.519 6.94509 16.023 8.67467 16.0071H9.29067C9.4285 16.007 9.56298 15.9646 9.676 15.8858C10.8495 15.1198 11.8524 14.12 12.622 12.949C13.3917 11.778 13.9116 10.4608 14.1493 9.07976C14.232 8.55169 14.1872 8.01151 14.0187 7.50426C13.8502 6.99702 13.5629 6.53741 13.1807 6.16377L12.6473 5.6411L15.812 2.47644C15.9379 2.3496 16.0083 2.17805 16.0079 1.99936C16.0076 1.82068 15.9364 1.64942 15.81 1.52311ZM9.072 14.6564H8.672C7.68696 14.6578 6.71121 14.4659 5.8 14.0918L5.80733 14.0878C6.97326 13.5027 7.97139 12.631 8.708 11.5544L9.05333 11.0471C9.15394 10.8995 9.19177 10.7179 9.15852 10.5424C9.12526 10.3668 9.02364 10.2117 8.876 10.1111C8.72836 10.0105 8.54681 9.97265 8.37127 10.0059C8.19574 10.0392 8.04061 10.1408 7.94 10.2884L7.59467 10.7958C6.98614 11.6835 6.16217 12.4022 5.2 12.8844L4.366 13.3044C3.69875 12.8354 3.11639 12.256 2.644 11.5911C3.73665 11.2235 4.73353 10.6168 5.562 9.8151C5.68983 9.69009 5.76277 9.51942 5.76477 9.34064C5.76678 9.16185 5.69767 8.9896 5.57267 8.86176C5.44766 8.73393 5.27699 8.66099 5.09821 8.65899C4.91942 8.65699 4.74717 8.72609 4.61933 8.8511C3.87326 9.574 2.96269 10.1048 1.966 10.3978C1.92533 10.3078 1.88133 10.2198 1.84467 10.1271C1.74142 9.87353 1.69308 9.60096 1.70285 9.32736C1.71262 9.05375 1.78026 8.78532 1.90133 8.53976C2.0239 8.28763 2.19773 8.06383 2.4117 7.88269C2.62567 7.70155 2.87509 7.56704 3.144 7.48777L4.526 7.08243C5.32797 6.8248 6.09509 6.46923 6.81 6.02377L12.0867 11.1651C11.3856 12.5607 10.3499 13.7611 9.072 14.6591V14.6564ZM12.8187 8.86776C12.7677 9.17966 12.6989 9.48839 12.6127 9.79243L7.96533 5.26644C8.30627 5.02139 8.71547 4.88942 9.13533 4.8891C9.65472 4.88844 10.1536 5.09169 10.5247 5.4551L12.2373 7.12777C12.466 7.35097 12.638 7.62556 12.7391 7.92867C12.8402 8.23178 12.8675 8.55465 12.8187 8.87043V8.86776Z" fill="#FF3B2F"/>
</g>
<defs>
<clipPath id="clip0_913_15260">
<rect width="16" height="16" fill="white"/>
</clipPath>
</defs>
</svg>
