<svg width="16" height="16" viewBox="0 0 16 16" fill="none" xmlns="http://www.w3.org/2000/svg">
<path fill-rule="evenodd" clip-rule="evenodd" d="M11.4917 4.16047C11.7402 4.38662 11.7551 4.76795 11.5251 5.0122L5.27656 11.6458C4.83165 12.1181 4.07184 12.1181 3.62694 11.6458L1.16324 9.03024C0.933178 8.786 0.948099 8.40467 1.19657 8.17852C1.44504 7.95236 1.83297 7.96703 2.06304 8.21127L4.45175 10.7472L10.6253 4.19323C10.8553 3.94899 11.2433 3.93432 11.4917 4.16047Z" fill="#4369FC"/>
<path d="M6.93863 11.6458L6.45577 11.1331L7.29138 10.246L7.76345 10.7472L13.937 4.19323C14.167 3.94898 14.555 3.93432 14.8034 4.16047C15.0519 4.38662 15.0668 4.76795 14.8368 5.01219L8.58826 11.6458C8.14335 12.1181 7.38354 12.1181 6.93863 11.6458Z" fill="#4369FC"/>
</svg>
