<svg width="16" height="16" viewBox="0 0 16 16" fill="none" xmlns="http://www.w3.org/2000/svg">
<g clip-path="url(#clip0_913_15232)">
<path d="M13.2994 3.69068L10.9768 1.36668C10.5443 0.932107 10.03 0.587569 9.46358 0.352988C8.89716 0.118407 8.28985 -0.00156258 7.67677 1.53658e-05H4.66677C3.78304 0.00107394 2.93581 0.352603 2.31091 0.977495C1.68602 1.60239 1.33449 2.44962 1.33344 3.33335V12.6667C1.33449 13.5504 1.68602 14.3976 2.31091 15.0225C2.93581 15.6474 3.78304 15.999 4.66677 16H11.3334C12.2172 15.999 13.0644 15.6474 13.6893 15.0225C14.3142 14.3976 14.6657 13.5504 14.6668 12.6667V6.99002C14.6684 6.37696 14.5484 5.76968 14.3137 5.20333C14.079 4.63699 13.7343 4.12284 13.2994 3.69068ZM12.3568 4.63335C12.5603 4.84278 12.7354 5.07814 12.8774 5.33335H10.0001C9.82329 5.33335 9.65372 5.26311 9.5287 5.13809C9.40367 5.01306 9.33344 4.84349 9.33344 4.66668V1.78935C9.58872 1.9313 9.82429 2.10612 10.0341 2.30935L12.3568 4.63335ZM13.3334 12.6667C13.3334 13.1971 13.1227 13.7058 12.7476 14.0809C12.3726 14.456 11.8639 14.6667 11.3334 14.6667H4.66677C4.13634 14.6667 3.62763 14.456 3.25255 14.0809C2.87748 13.7058 2.66677 13.1971 2.66677 12.6667V3.33335C2.66677 2.80292 2.87748 2.29421 3.25255 1.91914C3.62763 1.54406 4.13634 1.33335 4.66677 1.33335H7.67677C7.7861 1.33335 7.8921 1.35468 8.0001 1.36468V4.66668C8.0001 5.19711 8.21082 5.70582 8.58589 6.0809C8.96096 6.45597 9.46967 6.66668 10.0001 6.66668H13.3021C13.3121 6.77468 13.3334 6.88002 13.3334 6.99002V12.6667Z" fill="#99A2AD"/>
</g>
<defs>
<clipPath id="clip0_913_15232">
<rect width="16" height="16" fill="white"/>
</clipPath>
</defs>
</svg>
