<svg width="16" height="16" viewBox="0 0 16 16" fill="none" xmlns="http://www.w3.org/2000/svg">
    <path d="M14.805 3.35262C14.2075 2.35678 13.1452 1.69287 11.9502 1.69287H3.98341C2.78837 1.69287 1.72616 2.35678 1.12863 3.35262C0.398344 4.68043 0 6.14103 0 7.668C0 11.3194 1.46059 14.307 3.3195 14.307C4.31534 14.307 5.11203 13.3775 5.70953 11.4522C5.77591 11.1867 6.04147 10.9875 6.37344 10.9875H9.62656C9.89212 10.9875 10.1577 11.1867 10.2905 11.4522C10.888 13.3775 11.6847 14.307 12.6805 14.307C14.5394 14.307 16 11.3194 16 7.668C15.9336 6.14103 15.5353 4.68043 14.805 3.35262ZM12.6141 12.9792C12.4149 12.9792 11.9502 12.4481 11.4855 11.0539C11.2199 10.1908 10.4232 9.65968 9.56016 9.65968H6.37344C5.51038 9.65968 4.71369 10.2572 4.44812 11.0539C3.98341 12.4481 3.51866 12.9792 3.3195 12.9792C2.65559 12.9792 1.32781 10.9211 1.32781 7.668C1.32781 6.40659 1.65975 5.14518 2.25728 4.01656C2.65563 3.41906 3.31953 3.02071 3.98344 3.02071H11.9502C12.6142 3.02071 13.2781 3.41906 13.6764 4.01656C14.2739 5.14518 14.6059 6.40659 14.6059 7.668C14.6058 10.9211 13.278 12.9792 12.6141 12.9792Z" fill="#4369FC"/>
    <path d="M6.00003 5.99981H5.33338V5.33316C5.33338 4.93316 5.06672 4.6665 4.66672 4.6665C4.26672 4.6665 4.00006 4.93316 4.00006 5.33316V5.99981H3.33341C2.9334 5.99981 2.66675 6.26647 2.66675 6.66647C2.66675 7.06647 2.9334 7.33312 3.33341 7.33312H4.00003V7.99981C4.00003 8.39981 4.26669 8.66646 4.66669 8.66646C5.06669 8.66646 5.33334 8.39981 5.33334 7.99981V7.33315H6.00003C6.40003 7.33315 6.66669 7.0665 6.66669 6.6665C6.66669 6.26647 6.40003 5.99981 6.00003 5.99981Z" fill="#4369FC"/>
    <path d="M12.3333 6.6665C12.8855 6.6665 13.3333 6.21879 13.3333 5.6665C13.3333 5.11422 12.8855 4.6665 12.3333 4.6665C11.781 4.6665 11.3333 5.11422 11.3333 5.6665C11.3333 6.21879 11.781 6.6665 12.3333 6.6665Z" fill="#4369FC"/>
    <path d="M10.3333 8.66651C10.8855 8.66651 11.3333 8.2188 11.3333 7.66651C11.3333 7.11422 10.8855 6.6665 10.3333 6.6665C9.78097 6.6665 9.33325 7.11422 9.33325 7.66651C9.33325 8.2188 9.78097 8.66651 10.3333 8.66651Z" fill="#4369FC"/>
</svg>
