<svg width="22" height="22" viewBox="0 0 22 22" fill="none" xmlns="http://www.w3.org/2000/svg">
<g clip-path="url(#clip0_1590_8579)">
<path d="M16.0412 1.75684C15.009 1.77289 13.9993 2.06103 13.1141 2.59217C12.2289 3.1233 11.4995 3.87862 10.9996 4.78184C10.4996 3.87862 9.77024 3.1233 8.88502 2.59217C7.9998 2.06103 6.9901 1.77289 5.95789 1.75684C4.31242 1.82833 2.76212 2.54815 1.64569 3.75905C0.529259 4.96995 -0.0625498 6.57348 -0.000445134 8.21934C-0.000445134 12.3874 4.38672 16.9396 8.06622 20.026C8.88776 20.7164 9.92646 21.0949 10.9996 21.0949C12.0726 21.0949 13.1114 20.7164 13.9329 20.026C17.6124 16.9396 21.9996 12.3874 21.9996 8.21934C22.0617 6.57348 21.4699 4.96995 20.3534 3.75905C19.237 2.54815 17.6867 1.82833 16.0412 1.75684Z" fill="#FF3B2F"/>
</g>
<defs>
<clipPath id="clip0_1590_8579">
<rect width="22" height="22" fill="white"/>
</clipPath>
</defs>
</svg>
