<svg width="16" height="16" viewBox="0 0 16 16" fill="none" xmlns="http://www.w3.org/2000/svg">
<g clip-path="url(#clip0_700_5531)">
<path d="M8.00016 4C7.47275 4 6.95717 4.1564 6.51864 4.44941C6.08011 4.74243 5.73832 5.15891 5.53649 5.64618C5.33465 6.13345 5.28184 6.66962 5.38474 7.18691C5.48763 7.70419 5.74161 8.17935 6.11455 8.55229C6.48749 8.92523 6.96264 9.1792 7.47992 9.28209C7.99721 9.38499 8.53338 9.33218 9.02065 9.13035C9.50792 8.92851 9.9244 8.58672 10.2174 8.14819C10.5104 7.70966 10.6668 7.19408 10.6668 6.66667C10.6668 5.95942 10.3859 5.28115 9.88578 4.78105C9.38569 4.28095 8.70741 4 8.00016 4ZM8.00016 8C7.73646 8 7.47867 7.9218 7.2594 7.77529C7.04014 7.62878 6.86924 7.42055 6.76832 7.17691C6.66741 6.93328 6.641 6.66519 6.69245 6.40655C6.7439 6.14791 6.87089 5.91033 7.05736 5.72386C7.24383 5.53739 7.4814 5.4104 7.74004 5.35895C7.99868 5.30751 8.26677 5.33391 8.51041 5.43483C8.75404 5.53574 8.96228 5.70664 9.10879 5.92591C9.2553 6.14517 9.3335 6.40296 9.3335 6.66667C9.3335 7.02029 9.19302 7.35943 8.94297 7.60948C8.69292 7.85952 8.35379 8 8.00016 8Z" fill="#99A2AD"/>
<path d="M7.99972 16.0002C7.43835 16.003 6.88446 15.8714 6.38443 15.6162C5.8844 15.361 5.45278 14.9898 5.12572 14.5335C2.58505 11.0288 1.29639 8.39417 1.29639 6.70217C1.29639 4.92434 2.00263 3.21932 3.25975 1.9622C4.51687 0.705082 6.22189 -0.00115967 7.99972 -0.00115967C9.77755 -0.00115967 11.4826 0.705082 12.7397 1.9622C13.9968 3.21932 14.7031 4.92434 14.7031 6.70217C14.7031 8.39417 13.4144 11.0288 10.8737 14.5335C10.5467 14.9898 10.115 15.361 9.61501 15.6162C9.11498 15.8714 8.56109 16.003 7.99972 16.0002ZM7.99972 1.45417C6.608 1.45576 5.27373 2.00932 4.28963 2.99342C3.30554 3.97752 2.75197 5.31179 2.75039 6.70351C2.75039 8.04351 4.01239 10.5215 6.30305 13.6808C6.49752 13.9487 6.75263 14.1667 7.04753 14.317C7.34242 14.4673 7.66872 14.5457 7.99972 14.5457C8.33072 14.5457 8.65701 14.4673 8.95191 14.317C9.24681 14.1667 9.50192 13.9487 9.69639 13.6808C11.9871 10.5215 13.2491 8.04351 13.2491 6.70351C13.2475 5.31179 12.6939 3.97752 11.7098 2.99342C10.7257 2.00932 9.39144 1.45576 7.99972 1.45417Z" fill="#99A2AD"/>
</g>
<defs>
<clipPath id="clip0_700_5531">
<rect width="16" height="16" fill="white"/>
</clipPath>
</defs>
</svg>
