<svg width="20" height="20" viewBox="0 0 20 20" fill="none" xmlns="http://www.w3.org/2000/svg">
    <g clip-path="url(#clip0_197_557)">
        <path d="M15.8333 0.833496H10.8333C9.72867 0.834819 8.66963 1.27423 7.88852 2.05535C7.1074 2.83646 6.66799 3.8955 6.66667 5.00016V11.6885C5.94968 11.137 5.07123 10.8366 4.16667 10.8335C3.34258 10.8335 2.537 11.0779 1.85179 11.5357C1.16659 11.9935 0.632536 12.6443 0.317171 13.4056C0.00180535 14.167 -0.0807085 15.0048 0.0800632 15.813C0.240835 16.6213 0.637672 17.3637 1.22039 17.9464C1.80311 18.5292 2.54554 18.926 3.35379 19.0868C4.16205 19.2475 4.99982 19.165 5.76118 18.8497C6.52254 18.5343 7.17329 18.0002 7.63112 17.315C8.08896 16.6298 8.33333 15.8243 8.33333 15.0002V5.00016C8.33333 4.33712 8.59673 3.70124 9.06557 3.2324C9.53441 2.76356 10.1703 2.50016 10.8333 2.50016H15.8333C16.4964 2.50016 17.1323 2.76356 17.6011 3.2324C18.0699 3.70124 18.3333 4.33712 18.3333 5.00016V11.6885C17.6163 11.137 16.7379 10.8366 15.8333 10.8335C15.0092 10.8335 14.2037 11.0779 13.5185 11.5357C12.8333 11.9935 12.2992 12.6443 11.9838 13.4056C11.6685 14.167 11.586 15.0048 11.7467 15.813C11.9075 16.6213 12.3043 17.3637 12.8871 17.9464C13.4698 18.5292 14.2122 18.926 15.0205 19.0868C15.8287 19.2475 16.6665 19.165 17.4279 18.8497C18.1892 18.5343 18.84 18.0002 19.2978 17.315C19.7556 16.6298 20 15.8243 20 15.0002V5.00016C19.9987 3.8955 19.5593 2.83646 18.7782 2.05535C17.997 1.27423 16.938 0.834819 15.8333 0.833496ZM4.16667 17.5002C3.67222 17.5002 3.18887 17.3535 2.77774 17.0788C2.36662 16.8041 2.04619 16.4137 1.85697 15.9569C1.66775 15.5001 1.61824 14.9974 1.71471 14.5124C1.81117 14.0275 2.04927 13.582 2.3989 13.2324C2.74853 12.8828 3.19399 12.6447 3.67894 12.5482C4.1639 12.4517 4.66656 12.5012 5.12338 12.6905C5.58019 12.8797 5.97064 13.2001 6.24534 13.6112C6.52005 14.0224 6.66667 14.5057 6.66667 15.0002C6.66667 15.6632 6.40328 16.2991 5.93444 16.7679C5.46559 17.2368 4.82971 17.5002 4.16667 17.5002ZM15.8333 17.5002C15.3389 17.5002 14.8555 17.3535 14.4444 17.0788C14.0333 16.8041 13.7129 16.4137 13.5236 15.9569C13.3344 15.5001 13.2849 14.9974 13.3814 14.5124C13.4778 14.0275 13.7159 13.582 14.0656 13.2324C14.4152 12.8828 14.8607 12.6447 15.3456 12.5482C15.8306 12.4517 16.3332 12.5012 16.79 12.6905C17.2469 12.8797 17.6373 13.2001 17.912 13.6112C18.1867 14.0224 18.3333 14.5057 18.3333 15.0002C18.3333 15.6632 18.0699 16.2991 17.6011 16.7679C17.1323 17.2368 16.4964 17.5002 15.8333 17.5002Z" fill="#99A2AD"/>
    </g>
    <defs>
        <clipPath id="clip0_197_557">
            <rect width="20" height="20" fill="white"/>
        </clipPath>
    </defs>
</svg>
