<svg width="16" height="16" viewBox="0 0 16 16" fill="none" xmlns="http://www.w3.org/2000/svg">
<path d="M0.525391 0.522913C0.755973 0.292433 1.11209 0.264198 1.37402 0.436975L1.48047 0.522913L15.4805 14.5229L15.5664 14.6294C15.7393 14.8913 15.711 15.2474 15.4805 15.478C15.2498 15.7086 14.8938 15.7369 14.6318 15.5639L14.5254 15.478L10.0039 10.9565V15.2065C10.0039 15.3042 9.98188 15.4013 9.94043 15.4897C9.89895 15.5781 9.83868 15.6567 9.76367 15.7192C9.6886 15.7816 9.60032 15.8263 9.50586 15.851C9.41139 15.8758 9.31283 15.8794 9.2168 15.8618C7.1913 15.4817 5.38943 14.3377 4.18359 12.6665H3.33691C2.4533 12.6653 1.60626 12.3137 0.981445 11.6889C0.356732 11.0641 0.00496466 10.2171 0.00390625 9.33346V6.66647C0.00511567 5.78294 0.356688 4.93576 0.981445 4.311C1.40264 3.88985 1.92494 3.59301 2.49121 3.44381L0.525391 1.47799L0.439453 1.37155C0.266687 1.10957 0.294827 0.753476 0.525391 0.522913Z" fill="#99A2AD"/>
<path d="M13.4072 2.69381C13.5774 2.68881 13.743 2.7495 13.8701 2.86276C15.2308 4.22638 15.995 6.07406 15.9951 8.00045C15.9951 9.41561 15.5806 10.787 14.8223 11.9565L13.8564 10.9907C14.3809 10.0904 14.665 9.06017 14.665 8.00045C14.665 6.42765 14.0414 4.91872 12.9307 3.80514C12.817 3.67831 12.7562 3.51249 12.7607 3.34225C12.7654 3.17211 12.8349 3.00965 12.9551 2.88912C13.0753 2.76875 13.2371 2.69882 13.4072 2.69381Z" fill="#99A2AD"/>
<path d="M11.5918 4.65963C11.6802 4.6604 11.7683 4.67848 11.8496 4.71334C11.9309 4.74825 12.0049 4.79916 12.0664 4.86276C12.8973 5.69567 13.3632 6.82498 13.3633 8.00143C13.3632 8.70763 13.194 9.39607 12.8799 10.0141L11.8623 8.99655C11.9699 8.6785 12.0303 8.3435 12.0303 8.00143C12.0302 7.17848 11.7041 6.38891 11.123 5.80612C11.0594 5.74465 11.0085 5.67059 10.9736 5.58932C10.9389 5.50821 10.9207 5.42073 10.9199 5.33248C10.9192 5.24404 10.9362 5.15556 10.9697 5.07369C11.0032 4.99195 11.0528 4.91742 11.1152 4.85494C11.1778 4.79246 11.2522 4.74292 11.334 4.70944C11.4157 4.676 11.5035 4.65893 11.5918 4.65963Z" fill="#99A2AD"/>
<path d="M9.2168 0.138147C9.31275 0.120526 9.41147 0.124219 9.50586 0.148889C9.60037 0.173634 9.68857 0.219218 9.76367 0.281702C9.8387 0.344174 9.89895 0.422816 9.94043 0.511194C9.98182 0.599534 10.0038 0.695865 10.0039 0.79342V7.13815L5.12012 2.25436C6.2426 1.17143 7.66363 0.429679 9.2168 0.138147Z" fill="#99A2AD"/>
</svg>
