<svg width="20" height="20" viewBox="0 0 20 20" fill="none" xmlns="http://www.w3.org/2000/svg">
<path d="M20 9.99685C20.0023 9.62265 19.9053 9.2542 19.7185 8.92709C19.5317 8.59998 19.2613 8.32527 18.9335 8.1295L8.60464 1.57821C8.04592 1.16581 7.37993 0.913333 6.68167 0.849223C5.98341 0.785113 5.28062 0.911912 4.65244 1.21534C4.02426 1.51877 3.49564 1.98677 3.12612 2.56665C2.7566 3.14653 2.56085 3.81525 2.56091 4.4975L2.56144 6.27926C2.56146 6.37571 2.54192 6.47122 2.50395 6.56031C2.46598 6.64941 2.41031 6.73034 2.34015 6.79849L0.650849 8.44176C0.414505 8.67395 0.234979 8.95496 0.125608 9.26391L0.117609 9.26339L0.11761 9.29037C-0.040291 9.74794 -0.0391672 10.2433 0.120809 10.7002L0.12081 10.7272L0.128808 10.7267C0.238179 11.0356 0.417705 11.3166 0.654049 11.5488L2.34335 13.1921C2.4848 13.3295 2.56439 13.5158 2.56464 13.7103L2.56464 15.4915C2.56192 15.9719 2.65697 16.4481 2.84431 16.8926C3.03165 17.3371 3.30758 17.7411 3.65618 18.0814C3.94756 18.3642 4.28414 18.5991 4.65281 18.777C5.2715 19.0813 5.9653 19.2114 6.65593 19.1525C7.34657 19.0937 8.00656 18.8483 8.56145 18.444L18.9116 11.8772C19.245 11.6824 19.5206 11.4067 19.7114 11.077C19.9022 10.7474 20.0016 10.3751 20 9.99685ZM4.06944 6.28134L4.06838 4.49906C4.06324 4.0888 4.1785 3.68563 4.40065 3.33686C4.6228 2.98809 4.94262 2.7082 5.32256 2.53004C5.70679 2.34186 6.13851 2.26499 6.56635 2.30858C6.9942 2.35217 7.40018 2.51437 7.736 2.77591L17.9614 9.26287L1.93649 9.26391L3.40556 7.83487C3.61629 7.63146 3.78346 7.38942 3.89741 7.12277C4.01136 6.85611 4.06984 6.57012 4.06944 6.28134ZM7.696 17.2474C7.36053 17.494 6.96102 17.6449 6.54232 17.6829C6.12362 17.721 5.70229 17.6448 5.32564 17.4629C4.94899 17.2809 4.63192 17.0005 4.41002 16.653C4.18812 16.3055 4.07019 15.9047 4.06944 15.4957L4.06944 13.7113C4.07026 13.4225 4.01219 13.1364 3.8986 12.8696C3.78502 12.6027 3.61816 12.3605 3.40769 12.1567L1.93862 10.7277L17.9619 10.7303L7.696 17.2474Z" fill="#99A2AD"/>
</svg>
