<svg width="8" height="8" viewBox="0 0 8 8" fill="none" xmlns="http://www.w3.org/2000/svg">
<g clip-path="url(#clip0_1982_7668)">
<path d="M6.83067 2.65672L3.65134 0.325389C3.40301 0.143551 3.10918 0.0340265 2.80242 0.00895669C2.49566 -0.0161131 2.18795 0.0442507 1.9134 0.183357C1.63884 0.322463 1.40817 0.534879 1.24695 0.797058C1.08573 1.05924 1.00025 1.36094 1 1.66872V6.33372C0.999523 6.64181 1.08455 6.94398 1.24562 7.20661C1.40669 7.46923 1.63748 7.68201 1.9123 7.82125C2.18712 7.9605 2.4952 8.02074 2.80223 7.99528C3.10926 7.96982 3.4032 7.85966 3.65134 7.67706L6.83067 5.34572C7.04163 5.19091 7.21317 4.98859 7.33141 4.75516C7.44965 4.52172 7.51126 4.26373 7.51126 4.00206C7.51126 3.74038 7.44965 3.48239 7.33141 3.24895C7.21317 3.01552 7.04163 2.81321 6.83067 2.65839V2.65672Z" fill="white"/>
</g>
<defs>
<clipPath id="clip0_1982_7668">
<rect width="8" height="8" fill="white"/>
</clipPath>
</defs>
</svg>
