<svg width="24" height="24" viewBox="0 0 24 24" fill="none" xmlns="http://www.w3.org/2000/svg">
<path d="M14 15.997C14 16.8847 12.927 17.3296 12.2989 16.7023L9.7042 14.1113C9.1424 13.5496 8.82684 12.7882 8.82684 11.9943C8.82684 11.2005 9.1424 10.4391 9.7042 9.87737L12.2989 7.28636C12.927 6.65912 14 7.104 14 7.99169C14 8.25705 13.8942 8.51146 13.706 8.69855L11.1042 11.2854C11.0105 11.3782 10.9361 11.4886 10.8853 11.6103C10.8345 11.732 10.8084 11.8625 10.8084 11.9943C10.8084 12.1262 10.8345 12.2567 10.8853 12.3784C10.9361 12.5001 11.0105 12.6105 11.1042 12.7033L13.706 15.2901C13.8942 15.4772 14 15.7316 14 15.997Z" fill="black"/>
</svg>
