<svg width="16" height="16" viewBox="0 0 16 16" fill="none" xmlns="http://www.w3.org/2000/svg">
<g clip-path="url(#clip0_1982_23594)">
<path d="M16 15.3333V9.05704C15.9982 7.46628 15.3655 5.94119 14.2407 4.81635C13.1159 3.69152 11.5908 3.05881 10 3.05705H6.78V1.33305C6.77994 1.06938 6.70171 0.81165 6.5552 0.592437C6.40869 0.373224 6.20047 0.202372 5.95687 0.101478C5.71327 0.000585169 5.44523 -0.0258187 5.18662 0.0256046C4.92802 0.077028 4.69047 0.20397 4.504 0.390382L0.583998 4.97638C0.209056 5.35143 -0.00157547 5.86005 -0.00157547 6.39038C-0.00157547 6.9207 0.209056 7.42932 0.583998 7.80437L4.504 12.3904C4.69047 12.5768 4.92802 12.7037 5.18662 12.7551C5.44523 12.8066 5.71327 12.7802 5.95687 12.6793C6.20047 12.5784 6.40869 12.4075 6.5552 12.1883C6.70171 11.9691 6.77994 11.7114 6.78 11.4477V9.7237H10.6667C11.7272 9.72476 12.744 10.1465 13.4939 10.8964C14.8619 12.2644 14.6656 14.2728 14.6667 15.3333C14.6667 15.5101 14.7369 15.6797 14.8619 15.8047C14.987 15.9298 15.1565 16 15.3333 16C15.5101 16 15.6797 15.9298 15.8047 15.8047C15.9298 15.6797 16 15.5101 16 15.3333ZM5.44666 3.72371C5.44666 3.90052 5.5169 4.07009 5.64193 4.19512C5.76695 4.32014 5.93652 4.39038 6.11333 4.39038H10C11.2372 4.39179 12.4234 4.88391 13.2983 5.75877C14.1731 6.63363 14.6653 7.8198 14.6667 9.05704V10.1997C14.167 9.631 13.5517 9.17544 12.8619 8.86343C12.1721 8.55142 11.4237 8.39015 10.6667 8.39037H6.11333C5.93652 8.39037 5.76695 8.46061 5.64193 8.58563C5.5169 8.71066 5.44666 8.88023 5.44666 9.05704V11.4477L1.52733 6.86171C1.40235 6.73669 1.33214 6.56715 1.33214 6.39038C1.33214 6.2136 1.40235 6.04406 1.52733 5.91904L5.44666 1.33305V3.72371Z" fill="#99A2AD"/>
</g>
<defs>
<clipPath id="clip0_1982_23594">
<rect width="16" height="16" fill="white" transform="matrix(-1 0 0 1 16 0)"/>
</clipPath>
</defs>
</svg>
