<svg width="16" height="17" viewBox="0 0 16 17" fill="none" xmlns="http://www.w3.org/2000/svg">
<g clip-path="url(#clip0_1733_9712)">
<path d="M6 8.5C6.79113 8.5 7.56449 8.26541 8.22228 7.82588C8.88008 7.38635 9.39277 6.76164 9.69552 6.03074C9.99827 5.29983 10.0775 4.49556 9.92314 3.71964C9.7688 2.94372 9.38784 2.23098 8.82843 1.67157C8.26902 1.11216 7.55629 0.731202 6.78036 0.576861C6.00444 0.42252 5.20017 0.501733 4.46927 0.804484C3.73836 1.10723 3.11365 1.61992 2.67412 2.27772C2.2346 2.93552 2 3.70888 2 4.5C2.00106 5.56054 2.42283 6.57734 3.17274 7.32726C3.92266 8.07718 4.93946 8.49894 6 8.5ZM6 1.83334C6.52742 1.83334 7.04299 1.98973 7.48152 2.28275C7.92005 2.57577 8.26185 2.99224 8.46368 3.47951C8.66551 3.96678 8.71832 4.50296 8.61543 5.02024C8.51254 5.53753 8.25856 6.01268 7.88562 6.38562C7.51268 6.75856 7.03752 7.01254 6.52024 7.11543C6.00296 7.21832 5.46678 7.16551 4.97951 6.96368C4.49224 6.76185 4.07577 6.42005 3.78275 5.98152C3.48973 5.54299 3.33333 5.02742 3.33333 4.5C3.33333 3.79276 3.61429 3.11448 4.11438 2.61438C4.61448 2.11429 5.29276 1.83334 6 1.83334ZM12 15.8333C12 16.0101 11.9298 16.1797 11.8047 16.3047C11.6797 16.4298 11.5101 16.5 11.3333 16.5C11.1565 16.5 10.987 16.4298 10.8619 16.3047C10.7369 16.1797 10.6667 16.0101 10.6667 15.8333C10.6667 14.5957 10.175 13.4087 9.29983 12.5335C8.42466 11.6583 7.23768 11.1667 6 11.1667C4.76232 11.1667 3.57534 11.6583 2.70017 12.5335C1.825 13.4087 1.33333 14.5957 1.33333 15.8333C1.33333 16.0101 1.2631 16.1797 1.13807 16.3047C1.01305 16.4298 0.843478 16.5 0.666667 16.5C0.489856 16.5 0.320286 16.4298 0.195262 16.3047C0.0702379 16.1797 0 16.0101 0 15.8333C0 14.242 0.632141 12.7159 1.75736 11.5907C2.88258 10.4655 4.4087 9.83334 6 9.83334C7.5913 9.83334 9.11742 10.4655 10.2426 11.5907C11.3679 12.7159 12 14.242 12 15.8333ZM15.8047 10.0287C15.8683 10.0902 15.9191 10.1637 15.9541 10.2451C15.989 10.3264 16.0074 10.4139 16.0082 10.5024C16.0089 10.5909 15.9921 10.6787 15.9586 10.7606C15.925 10.8426 15.8755 10.917 15.8129 10.9796C15.7503 11.0422 15.6759 11.0917 15.594 11.1252C15.512 11.1587 15.4243 11.1756 15.3357 11.1748C15.2472 11.1741 15.1597 11.1557 15.0784 11.1207C14.9971 11.0858 14.9235 11.035 14.862 10.9713L13.6667 9.776L12.4713 10.9713C12.3456 11.0928 12.1772 11.16 12.0024 11.1585C11.8276 11.1569 11.6604 11.0868 11.5368 10.9632C11.4132 10.8396 11.3431 10.6724 11.3416 10.4976C11.34 10.3228 11.4072 10.1544 11.5287 10.0287L12.724 8.83334L11.5287 7.638C11.4072 7.51227 11.34 7.34387 11.3416 7.16907C11.3431 6.99427 11.4132 6.82706 11.5368 6.70346C11.6604 6.57985 11.8276 6.50974 12.0024 6.50822C12.1772 6.5067 12.3456 6.5739 12.4713 6.69534L13.6667 7.89067L14.862 6.69534C14.9877 6.5739 15.1561 6.5067 15.3309 6.50822C15.5057 6.50974 15.6729 6.57985 15.7965 6.70346C15.9202 6.82706 15.9903 6.99427 15.9918 7.16907C15.9933 7.34387 15.9261 7.51227 15.8047 7.638L14.6093 8.83334L15.8047 10.0287Z" fill="#4369FC"/>
</g>
<defs>
<clipPath id="clip0_1733_9712">
<rect width="16" height="16" fill="white" transform="translate(0 0.5)"/>
</clipPath>
</defs>
</svg>
