<svg width="16" height="16" viewBox="0 0 16 16" fill="none" xmlns="http://www.w3.org/2000/svg">
<g clip-path="url(#clip0_913_15222)">
<path d="M15.2667 5.97035C14.8164 5.74216 14.2755 5.78972 13.872 6.093L12.65 7.00035C12.4767 5.2981 11.0444 4.0025 9.33334 4.00035H9.27669L6.52869 1.253C6.15472 0.876408 5.64544 0.665346 5.11469 0.667002H0.666656C0.298469 0.667002 0 0.965502 0 1.33369C0 1.70188 0.298469 2.00035 0.666656 2.00035H5.11466C5.29138 2.00081 5.46075 2.071 5.586 2.19569L7.39066 4.00035H3.33334C1.49331 4.00256 0.00221875 5.49366 0 7.33369V12.667C0.00221875 14.507 1.49331 15.9982 3.33334 16.0003H9.33334C11.0444 15.9982 12.4767 14.7026 12.65 13.0003L13.87 13.9097C14.4591 14.3515 15.2948 14.2321 15.7367 13.643C15.9097 13.4123 16.0033 13.1315 16.0033 12.843V7.16235C16.0051 6.65707 15.7194 6.19478 15.2667 5.97035ZM11.3333 12.667C11.3333 13.7716 10.4379 14.667 9.33334 14.667H3.33334C2.22878 14.667 1.33334 13.7716 1.33334 12.667V7.33369C1.33334 6.22913 2.22878 5.33369 3.33334 5.33369H9.33334C10.4379 5.33369 11.3333 6.22913 11.3333 7.33369V12.667ZM14.6667 12.8383L12.6667 11.3477V8.65303L14.6667 7.16238V12.8383Z" fill="#99A2AD"/>
</g>
<defs>
<clipPath id="clip0_913_15222">
<rect width="16" height="16" fill="white"/>
</clipPath>
</defs>
</svg>
