<svg width="16" height="16" viewBox="0 0 16 16" fill="none" xmlns="http://www.w3.org/2000/svg">
<g clip-path="url(#clip0_2344_26584)">
<path d="M13.8662 2.86189C13.739 2.74853 13.5733 2.68815 13.403 2.69316C13.2327 2.69816 13.0708 2.76817 12.9505 2.8888C12.8302 3.00943 12.7607 3.17154 12.7561 3.34184C12.7516 3.51214 12.8125 3.6777 12.9262 3.80455C14.037 4.91821 14.6608 6.42694 14.6608 7.99989C14.6608 9.57283 14.037 11.0816 12.9262 12.1952C12.8585 12.2556 12.8038 12.3291 12.7655 12.4113C12.7272 12.4935 12.7061 12.5826 12.7034 12.6733C12.7007 12.7639 12.7166 12.8542 12.75 12.9385C12.7834 13.0228 12.8337 13.0994 12.8977 13.1636C12.9618 13.2278 13.0382 13.2783 13.1224 13.3119C13.2066 13.3456 13.2968 13.3617 13.3875 13.3593C13.4781 13.3569 13.5674 13.336 13.6497 13.2979C13.732 13.2599 13.8056 13.2054 13.8662 13.1379C15.227 11.7742 15.9912 9.92638 15.9912 7.99989C15.9912 6.07339 15.227 4.22558 13.8662 2.86189V2.86189Z" fill="#99A2AD"/>
<path d="M12.0622 4.86246C12.0007 4.79879 11.9272 4.748 11.8458 4.71306C11.7645 4.67812 11.677 4.65973 11.5885 4.65896C11.5 4.65819 11.4122 4.67506 11.3302 4.70858C11.2483 4.7421 11.1739 4.7916 11.1113 4.8542C11.0487 4.91679 10.9992 4.99123 10.9657 5.07316C10.9321 5.15509 10.9153 5.24287 10.916 5.33139C10.9168 5.41991 10.9352 5.50739 10.9701 5.58873C11.0051 5.67007 11.0559 5.74363 11.1195 5.80513C11.7006 6.38797 12.027 7.17743 12.027 8.00046C12.027 8.82349 11.7006 9.61294 11.1195 10.1958C11.0559 10.2573 11.0051 10.3308 10.9701 10.4122C10.9352 10.4935 10.9168 10.581 10.916 10.6695C10.9153 10.758 10.9321 10.8458 10.9657 10.9278C10.9992 11.0097 11.0487 11.0841 11.1113 11.1467C11.1739 11.2093 11.2483 11.2588 11.3302 11.2923C11.4122 11.3259 11.5 11.3427 11.5885 11.342C11.677 11.3412 11.7645 11.3228 11.8458 11.2879C11.9272 11.2529 12.0007 11.2021 12.0622 11.1385C12.8931 10.3055 13.3597 9.17698 13.3597 8.00046C13.3597 6.82393 12.8931 5.69543 12.0622 4.86246V4.86246Z" fill="#99A2AD"/>
<path d="M9.21267 0.137476C7.18702 0.517693 5.38486 1.66161 4.17867 3.33281H3.33333C2.4496 3.33387 1.60237 3.6854 0.97748 4.31029C0.352588 4.93518 0.00105857 5.78241 0 6.66614L0 9.33281C0.00105857 10.2165 0.352588 11.0638 0.97748 11.6887C1.60237 12.3136 2.4496 12.6651 3.33333 12.6661H4.17933C5.38518 14.3374 7.18716 15.4814 9.21267 15.8615C9.30879 15.8792 9.40764 15.8755 9.50219 15.8507C9.59675 15.826 9.6847 15.7807 9.75982 15.7182C9.83495 15.6557 9.8954 15.5774 9.93691 15.4889C9.97841 15.4004 9.99995 15.3039 10 15.2061V0.79281C9.99995 0.695068 9.97841 0.598531 9.93691 0.510039C9.8954 0.421547 9.83495 0.343264 9.75982 0.280735C9.6847 0.218206 9.59675 0.172961 9.50219 0.148204C9.40764 0.123447 9.30879 0.119785 9.21267 0.137476V0.137476Z" fill="#99A2AD"/>
</g>
<defs>
<clipPath id="clip0_2344_26584">
<rect width="16" height="16" fill="white"/>
</clipPath>
</defs>
</svg>
