<svg width="152" height="152" viewBox="0 0 152 152" fill="none" xmlns="http://www.w3.org/2000/svg">
<path fill-rule="evenodd" clip-rule="evenodd" d="M138.408 127.594C138.525 125.948 138.578 124.287 138.578 122.61C138.578 106.285 125.958 110.542 119.251 123.654C111.127 139.538 96.9713 149.616 81.1317 151.633C79.4599 151.85 77.7489 151.974 76 152C74.2511 151.974 72.5401 151.85 70.8682 151.633C55.0287 149.616 40.8733 139.538 32.7487 123.654C26.0417 110.542 13.4221 106.285 13.4221 122.61C13.4221 124.287 13.4752 125.948 13.5924 127.594C14.0519 134.042 10.9993 141.208 6.52883 141.208C4.1743 141.208 2.0014 139.2 1.35978 135.915C0.413173 131.069 1.43051e-06 126.056 1.43051e-06 122.381C1.43051e-06 75.7546 22.5719 24.5023 52.1918 6.35315C58.0574 2.75909 66.0148 0.612175 73.4532 0.1084C74.2929 0.0490689 75.1419 0.0128158 76 1.43051e-06C76.8581 0.0128158 77.7071 0.0490689 78.5468 0.1084C85.9852 0.612175 93.9426 2.75909 99.8082 6.35315C129.428 24.5023 152 75.7546 152 122.381C152 126.056 151.587 131.069 150.64 135.915C149.999 139.2 147.826 141.208 145.471 141.208C141.001 141.208 137.948 134.042 138.408 127.594ZM77.0395 18.4198C76.6928 18.4138 76.3463 18.4108 76 18.4108C75.6321 18.4108 75.2649 18.4142 74.8985 18.4209C53.1971 18.8222 34.3746 46.8724 34.3746 76C34.3746 105.157 53.2345 117.478 74.9632 117.856C75.3081 117.862 75.6537 117.865 76 117.865C76.3611 117.865 76.7226 117.862 77.0841 117.855C98.7929 117.46 117.625 105.135 117.625 76C117.625 46.8447 98.7671 18.7987 77.0395 18.4198Z" fill="#4369FC"/>
</svg>
