<svg width="192" height="192" viewBox="0 0 192 192" fill="none" xmlns="http://www.w3.org/2000/svg">
<path fill-rule="evenodd" clip-rule="evenodd" d="M174.831 161.171C174.979 159.093 175.046 156.994 175.046 154.876C175.046 134.255 159.105 139.632 150.633 156.195C140.371 176.259 122.49 188.989 102.482 191.536C100.37 191.811 98.2091 191.967 96 192C93.7909 191.967 91.6295 191.811 89.5177 191.536C69.51 188.989 51.6294 176.259 41.3667 156.195C32.8948 139.632 16.9542 134.255 16.9542 154.876C16.9542 156.994 17.0213 159.093 17.1694 161.171C17.7497 169.316 13.8939 178.369 8.24694 178.369C5.27279 178.369 2.52807 175.832 1.71761 171.683C0.521895 165.561 -6.19888e-06 159.229 -6.19888e-06 154.586C-6.19888e-06 95.6901 28.5119 30.9503 65.9264 8.02503C73.3356 3.48516 83.3872 0.773265 92.7829 0.136919C93.8436 0.0619737 94.9161 0.0161803 96 -6.19888e-06C97.0839 0.0161803 98.1563 0.0619737 99.2171 0.136919C108.613 0.773265 118.664 3.48516 126.074 8.02503C163.488 30.9503 192 95.6901 192 154.586C192 159.229 191.478 165.561 190.282 171.683C189.472 175.832 186.727 178.369 183.753 178.369C178.106 178.369 174.25 169.316 174.831 161.171ZM97.3131 23.2671C96.8751 23.2595 96.4374 23.2557 96 23.2557C95.5352 23.2557 95.0714 23.26 94.6087 23.2686C67.1963 23.7754 43.4205 59.2072 43.4205 96C43.4205 132.829 67.2435 148.393 94.6903 148.871C95.126 148.878 95.5626 148.882 96 148.882C96.4562 148.882 96.9127 148.878 97.3694 148.87C124.791 148.371 148.579 132.803 148.579 96C148.579 59.1722 124.758 23.7457 97.3131 23.2671Z" fill="#4369FC"/>
</svg>
