<svg width="512" height="512" viewBox="0 0 512 512" fill="none" xmlns="http://www.w3.org/2000/svg">
<path fill-rule="evenodd" clip-rule="evenodd" d="M466.215 429.79C466.61 424.247 466.789 418.651 466.789 413.003C466.789 358.012 424.281 372.351 401.689 416.52C374.322 470.024 326.64 503.971 273.286 510.762C267.654 511.496 261.891 511.912 256 512C250.109 511.912 244.345 511.496 238.714 510.762C185.36 503.971 137.678 470.024 110.311 416.52C87.7194 372.351 45.2112 358.012 45.2112 413.003C45.2112 418.651 45.3901 424.247 45.7851 429.79C47.3326 451.51 37.0504 475.65 21.9919 475.65C14.0608 475.65 6.74155 468.885 4.58032 457.821C1.39174 441.496 1.90735e-06 424.611 1.90735e-06 412.23C1.90735e-06 255.173 76.0318 82.5341 175.804 21.4001C195.562 9.29379 222.366 2.06206 247.421 0.365135C250.25 0.165282 253.11 0.043166 256 1.90735e-06C258.89 0.043166 261.75 0.165282 264.579 0.365135C289.634 2.06206 316.438 9.29379 336.196 21.4001C435.968 82.5341 512 255.173 512 412.23C512 424.611 510.608 441.496 507.42 457.821C505.258 468.885 497.939 475.65 490.008 475.65C474.95 475.65 464.667 451.51 466.215 429.79ZM259.502 62.0456C258.334 62.0254 257.166 62.0153 256 62.0153C254.761 62.0153 253.524 62.0267 252.29 62.0495C179.19 63.401 115.788 157.886 115.788 256C115.788 354.211 179.316 395.716 252.508 396.989C253.669 397.009 254.834 397.019 256 397.019C257.216 397.019 258.434 397.008 259.652 396.986C332.776 395.656 396.212 354.14 396.212 256C396.212 157.793 332.689 63.3219 259.502 62.0456Z" fill="#4369FC"/>
</svg>
