<svg width="128" height="128" viewBox="0 0 128 128" fill="none" xmlns="http://www.w3.org/2000/svg">
<path fill-rule="evenodd" clip-rule="evenodd" d="M116.554 107.448C116.652 106.062 116.697 104.663 116.697 103.251C116.697 89.5031 106.07 93.0878 100.422 104.13C93.5804 117.506 81.66 125.993 68.3215 127.691C66.9136 127.874 65.4727 127.978 64 128C62.5272 127.978 61.0864 127.874 59.6785 127.691C46.34 125.993 34.4196 117.506 27.5778 104.13C21.9299 93.0878 11.3028 89.5031 11.3028 103.251C11.3028 104.663 11.3475 106.062 11.4463 107.448C11.8332 112.877 9.26259 118.912 5.49796 118.912C3.5152 118.912 1.68539 117.221 1.14508 114.455C0.347935 110.374 4.76837e-07 106.153 4.76837e-07 103.057C4.76837e-07 63.7934 19.0079 20.6335 43.951 5.35002C48.8904 2.32345 55.5915 0.515515 61.8553 0.0912838C62.5624 0.0413204 63.2774 0.0107915 64 4.76837e-07C64.7226 0.0107915 65.4376 0.0413204 66.1447 0.0912838C72.4085 0.515515 79.1096 2.32345 84.049 5.35002C108.992 20.6335 128 63.7934 128 103.057C128 106.153 127.652 110.374 126.855 114.455C126.315 117.221 124.485 118.912 122.502 118.912C118.737 118.912 116.167 112.877 116.554 107.448ZM64.8754 15.5114C64.5834 15.5063 64.2916 15.5038 64 15.5038C63.6902 15.5038 63.381 15.5067 63.0725 15.5124C44.7975 15.8503 28.947 39.4715 28.947 64C28.947 88.5529 44.829 98.929 63.1269 99.2472C63.4173 99.2523 63.7084 99.2548 64 99.2548C64.3041 99.2548 64.6085 99.252 64.913 99.2465C83.194 98.9139 99.053 88.535 99.053 64C99.053 39.4481 83.1723 15.8305 64.8754 15.5114Z" fill="#4369FC"/>
</svg>
