<svg width="144" height="144" viewBox="0 0 144 144" fill="none" xmlns="http://www.w3.org/2000/svg">
<path fill-rule="evenodd" clip-rule="evenodd" d="M131.123 120.879C131.234 119.32 131.284 117.746 131.284 116.157C131.284 100.691 119.329 104.724 112.975 117.146C105.278 132.194 91.8675 141.742 76.8617 143.652C75.2778 143.858 73.6568 143.975 72 144C70.3432 143.975 68.7222 143.858 67.1383 143.652C52.1325 141.742 38.722 132.194 31.0251 117.146C24.6711 104.724 12.7157 100.691 12.7157 116.157C12.7157 117.746 12.766 119.32 12.8771 120.879C13.3123 126.987 10.4204 133.776 6.18521 133.776C3.9546 133.776 1.89607 131.874 1.28822 128.762C0.391432 124.171 5.72205e-06 119.422 5.72205e-06 115.94C5.72205e-06 71.7675 21.3839 23.2127 49.4448 6.01878C55.0017 2.61388 62.5404 0.579959 69.5872 0.102699C70.3827 0.0464907 71.1871 0.0121456 72 5.72205e-06C72.813 0.0121456 73.6173 0.0464907 74.4128 0.102699C81.4596 0.579959 88.9983 2.61388 94.5552 6.01878C122.616 23.2127 144 71.7675 144 115.94C144 119.422 143.609 124.171 142.712 128.762C142.104 131.874 140.045 133.776 137.815 133.776C133.58 133.776 130.688 126.987 131.123 120.879ZM72.9848 17.4503C72.6564 17.4446 72.3281 17.4418 72 17.4418C71.6514 17.4418 71.3036 17.445 70.9565 17.4514C50.3972 17.8315 32.5654 44.4054 32.5654 72C32.5654 99.622 50.4326 111.295 71.0178 111.653C71.3445 111.659 71.6719 111.662 72 111.662C72.3421 111.662 72.6845 111.659 73.0271 111.652C93.5933 111.278 111.435 99.6019 111.435 72C111.435 44.3792 93.5688 17.8093 72.9848 17.4503Z" fill="#4369FC"/>
</svg>
