<svg width="32" height="32" viewBox="0 0 32 32" fill="none" xmlns="http://www.w3.org/2000/svg">
<path fill-rule="evenodd" clip-rule="evenodd" d="M29.1384 26.8619C29.1631 26.5155 29.1743 26.1657 29.1743 25.8127C29.1743 22.3758 26.5175 23.272 25.1055 26.0325C23.3951 29.3765 20.415 31.4982 17.0804 31.9226C16.7284 31.9685 16.3682 31.9945 16 32C15.6318 31.9945 15.2716 31.9685 14.9196 31.9226C11.585 31.4982 8.6049 29.3765 6.89446 26.0325C5.48246 23.272 2.8257 22.3758 2.8257 25.8127C2.8257 26.1657 2.83688 26.5155 2.86157 26.8619C2.95829 28.2194 2.31565 29.7281 1.37449 29.7281C0.878799 29.7281 0.421347 29.3053 0.28627 28.6138C0.0869836 27.5935 1.19209e-07 26.5382 1.19209e-07 25.7643C1.19209e-07 15.9483 4.75199 5.15838 10.9877 1.33751C12.2226 0.580862 13.8979 0.128879 15.4638 0.022821C15.6406 0.0103301 15.8193 0.00269787 16 1.19209e-07C16.1807 0.00269787 16.3594 0.0103301 16.5362 0.022821C18.1021 0.128879 19.7774 0.580862 21.0123 1.33751C27.248 5.15838 32 15.9483 32 25.7643C32 26.5382 31.913 27.5935 31.7137 28.6138C31.5787 29.3053 31.1212 29.7281 30.6255 29.7281C29.6844 29.7281 29.0417 28.2194 29.1384 26.8619ZM16.2188 3.87785C16.1459 3.87659 16.0729 3.87596 16 3.87596C15.9225 3.87596 15.8452 3.87667 15.7681 3.87809C11.1994 3.96257 7.23676 9.86787 7.23676 16C7.23676 22.1382 11.2073 24.7322 15.7817 24.8118C15.8543 24.8131 15.9271 24.8137 16 24.8137C16.076 24.8137 16.1521 24.813 16.2282 24.8116C20.7985 24.7285 24.7632 22.1338 24.7632 16C24.7632 9.86204 20.7931 3.95762 16.2188 3.87785Z" fill="#4369FC"/>
</svg>
