<svg width="16" height="16" viewBox="0 0 16 16" fill="none" xmlns="http://www.w3.org/2000/svg">
<g clip-path="url(#clip0_445_3789)">
<path d="M1.33333 9.33353C2.06971 9.33353 2.66667 8.73658 2.66667 8.0002C2.66667 7.26382 2.06971 6.66687 1.33333 6.66687C0.596954 6.66687 0 7.26382 0 8.0002C0 8.73658 0.596954 9.33353 1.33333 9.33353Z" fill="#99A2AD"/>
<path d="M8.00008 9.33353C8.73646 9.33353 9.33341 8.73658 9.33341 8.0002C9.33341 7.26382 8.73646 6.66687 8.00008 6.66687C7.2637 6.66687 6.66675 7.26382 6.66675 8.0002C6.66675 8.73658 7.2637 9.33353 8.00008 9.33353Z" fill="#99A2AD"/>
<path d="M14.6666 9.33353C15.403 9.33353 15.9999 8.73658 15.9999 8.0002C15.9999 7.26382 15.403 6.66687 14.6666 6.66687C13.9302 6.66687 13.3333 7.26382 13.3333 8.0002C13.3333 8.73658 13.9302 9.33353 14.6666 9.33353Z" fill="#99A2AD"/>
</g>
<defs>
<clipPath id="clip0_445_3789">
<rect width="16" height="16" fill="white"/>
</clipPath>
</defs>
</svg>
